AcariSans-Regular.ufo
<glyph name="exclam" format="2">
  <advance width="646"/>
  <unicode hex="0021"/>
  <outline>
    <contour>
      <point x="391" y="405" type="line"/>
      <point x="420" y="1469" type="line"/>
      <point x="225" y="1469" type="line"/>
      <point x="253" y="405" type="line"/>
    </contour>
    <contour>
      <point x="433" y="0" type="line"/>
      <point x="433" y="219" type="line"/>
      <point x="211" y="219" type="line"/>
      <point x="211" y="0" type="line"/>
    </contour>
  </outline>
</glyph>
<glyph name="parenleft" format="2">
  <advance width="504"/>
  <unicode hex="0028"/>
  <outline>
    <contour>
      <point x="92" y="724" type="curve" smooth="yes"/>
      <point x="92" y="440"/>
      <point x="197" y="125"/>
      <point x="359" y="-66" type="curve"/>
      <point x="515" y="-66" type="line"/>
      <point x="350" y="158"/>
      <point x="255" y="440"/>
      <point x="255" y="724" type="curve" smooth="yes"/>
      <point x="255" y="1009"/>
      <point x="347" y="1277"/>
      <point x="515" y="1514" type="curve"/>
      <point x="359" y="1514" type="line"/>
      <point x="191" y="1305"/>
      <point x="92" y="1024"/>
    </contour>
  </outline>
</glyph>
<glyph name="parenright" format="2">
  <advance width="504"/>
  <unicode hex="0029"/>
  <outline>
    <contour>
      <point x="412" y="724" type="curve" smooth="yes"/>
      <point x="412" y="1008"/>
      <point x="307" y="1323"/>
      <point x="145" y="1514" type="curve"/>
      <point x="-11" y="1514" type="line"/>
      <point x="154" y="1290"/>
      <point x="249" y="1008"/>
      <point x="249" y="724" type="curve" smooth="yes"/>
      <point x="249" y="439"/>
      <point x="158" y="171"/>
      <point x="-11" y="-66" type="curve"/>
      <point x="145" y="-66" type="line"/>
      <point x="313" y="143"/>
      <point x="412" y="424"/>
    </contour>
  </outline>
</glyph>
<glyph name="hyphen" format="2">
  <advance width="859"/>
  <unicode hex="002D"/>
  <outline>
    <contour>
      <point x="702" y="571" type="line"/>
      <point x="702" y="708" type="line"/>
      <point x="156" y="708" type="line"/>
      <point x="156" y="571" type="line"/>
    </contour>
  </outline>
</glyph>
<glyph name="three" format="2">
  <advance width="1229"/>
  <unicode hex="0033"/>
  <outline>
    <contour>
      <point x="90" y="422" type="line"/>
      <point x="90" y="123"/>
      <point x="321" y="-20"/>
      <point x="594" y="-20" type="curve" smooth="yes"/>
      <point x="868" y="-20"/>
      <point x="1095" y="127"/>
      <point x="1095" y="418" type="curve" smooth="yes"/>
      <point x="1095" y="584"/>
      <point x="1017" y="715"/>
      <point x="859" y="781" type="curve"/>
      <point x="963" y="852"/>
      <point x="1017" y="959"/>
      <point x="1017" y="1091" type="curve" smooth="yes"/>
      <point x="1017" y="1330"/>
      <point x="810" y="1468"/>
      <point x="589" y="1468" type="curve" smooth="yes"/>
      <point x="349" y="1468"/>
      <point x="159" y="1321"/>
      <point x="159" y="1074" type="curve"/>
      <point x="334" y="1057" type="line"/>
      <point x="337" y="1205"/>
      <point x="448" y="1296"/>
      <point x="591" y="1296" type="curve" smooth="yes"/>
      <point x="730" y="1296"/>
      <point x="837" y="1207"/>
      <point x="837" y="1064" type="curve" smooth="yes"/>
      <point x="837" y="931"/>
      <point x="754" y="849"/>
      <point x="624" y="849" type="curve" smooth="yes"/>
      <point x="499" y="849" type="line"/>
      <point x="499" y="686" type="line"/>
      <point x="609" y="686" type="line" smooth="yes"/>
      <point x="785" y="686"/>
      <point x="917" y="603"/>
      <point x="917" y="422" type="curve" smooth="yes"/>
      <point x="917" y="242"/>
      <point x="758" y="148"/>
      <point x="595" y="148" type="curve" smooth="yes"/>
      <point x="418" y="148"/>
      <point x="267" y="252"/>
      <point x="267" y="436" type="curve"/>
    </contour>
  </outline>
</glyph>
<glyph name="four" format="2">
  <advance width="1229"/>
  <unicode hex="0034"/>
  <outline>
    <contour>
      <point x="64" y="375" type="line"/>
      <point x="720" y="375" type="line"/>
      <point x="720" y="0" type="line"/>
      <point x="907" y="0" type="line"/>
      <point x="907" y="375" type="line"/>
      <point x="1132" y="375" type="line"/>
      <point x="1132" y="542" type="line"/>
      <point x="907" y="542" type="line"/>
      <point x="907" y="1447" type="line"/>
      <point x="740" y="1447" type="line"/>
      <point x="64" y="483" type="line"/>
    </contour>
    <contour>
      <point x="294" y="542" type="line"/>
      <point x="720" y="1150" type="line"/>
      <point x="720" y="542" type="line"/>
    </contour>
  </outline>
</glyph>
<glyph name="question" format="2">
  <advance width="1044"/>
  <unicode hex="003F"/>
  <outline>
    <contour>
      <point x="593" y="401" type="line"/>
      <point x="593" y="606" type="line" smooth="yes"/>
      <point x="593" y="676"/>
      <point x="642" y="710"/>
      <point x="717" y="751" type="curve" smooth="yes"/>
      <point x="839" y="818"/>
      <point x="942" y="905"/>
      <point x="942" y="1084" type="curve" smooth="yes"/>
      <point x="942" y="1335"/>
      <point x="740" y="1468"/>
      <point x="505" y="1468" type="curve" smooth="yes"/>
      <point x="274" y="1468"/>
      <point x="82" y="1316"/>
      <point x="82" y="1066" type="curve"/>
      <point x="251" y="1066" type="line"/>
      <point x="251" y="1224"/>
      <point x="364" y="1312"/>
      <point x="513" y="1312" type="curve" smooth="yes"/>
      <point x="657" y="1312"/>
      <point x="776" y="1246"/>
      <point x="776" y="1088" type="curve" smooth="yes"/>
      <point x="776" y="964"/>
      <point x="704" y="916"/>
      <point x="623" y="871" type="curve" smooth="yes"/>
      <point x="509" y="807"/>
      <point x="433" y="743"/>
      <point x="433" y="608" type="curve" smooth="yes"/>
      <point x="433" y="401" type="line"/>
    </contour>
    <contour>
      <point x="627" y="0" type="line"/>
      <point x="627" y="219" type="line"/>
      <point x="406" y="219" type="line"/>
      <point x="406" y="0" type="line"/>
    </contour>
  </outline>
</glyph>
<glyph name="H" format="2">
  <advance width="1496"/>
  <unicode hex="0048"/>
  <anchor x="747" y="1618" name="top"/>
  <outline>
    <contour>
      <point x="1291" y="0" type="line"/>
      <point x="1291" y="1448" type="line"/>
      <point x="1099" y="1448" type="line"/>
      <point x="1099" y="807" type="line"/>
      <point x="395" y="807" type="line"/>
      <point x="395" y="1448" type="line"/>
      <point x="204" y="1448" type="line"/>
      <point x="204" y="0" type="line"/>
      <point x="395" y="0" type="line"/>
      <point x="395" y="641" type="line"/>
      <point x="1099" y="641" type="line"/>
      <point x="1099" y="0" type="line"/>
    </contour>
  </outline>
</glyph>
<glyph name="N" format="2">
  <advance width="1458"/>
  <unicode hex="004E"/>
  <outline>
    <contour>
      <point x="1253" y="0" type="line"/>
      <point x="1253" y="1448" type="line"/>
      <point x="1066" y="1448" type="line"/>
      <point x="1066" y="262" type="line"/>
      <point x="439" y="1448" type="line"/>
      <point x="204" y="1448" type="line"/>
      <point x="204" y="0" type="line"/>
      <point x="392" y="0" type="line"/>
      <point x="392" y="1187" type="line"/>
      <point x="1014" y="0" type="line"/>
    </contour>
  </outline>
</glyph>
<glyph name="O" format="2">
  <advance width="1571"/>
  <unicode hex="004F"/>
  <anchor x="785" y="1618" name="top"/>
  <anchor x="1546" y="1448" name="horn"/>
  <anchor x="928" y="0" name="ogonek"/>
  <outline>
    <contour>
      <point x="785" y="-20" type="curve" smooth="yes" name=".dv01"/>
      <point x="1198" y="-20"/>
      <point x="1455" y="273"/>
      <point x="1455" y="724" type="curve" smooth="yes" name=".dh04"/>
      <point x="1455" y="1175"/>
      <point x="1198" y="1468"/>
      <point x="785" y="1468" type="curve" smooth="yes" name=".dv04"/>
      <point x="371" y="1468"/>
      <point x="114" y="1175"/>
      <point x="114" y="724" type="curve" smooth="yes" name=".dh01"/>
      <point x="114" y="274"/>
      <point x="371" y="-20"/>
    </contour>
    <contour>
      <point x="785" y="153" type="curve" smooth="yes" name=".dv02"/>
      <point x="474" y="153"/>
      <point x="312" y="388"/>
      <point x="312" y="724" type="curve" smooth="yes" name=".dh02"/>
      <point x="312" y="1065"/>
      <point x="478" y="1295"/>
      <point x="785" y="1295" type="curve" smooth="yes" name=".dv03"/>
      <point x="1094" y="1295"/>
      <point x="1256" y="1062"/>
      <point x="1256" y="724" type="curve" smooth="yes" name=".dh03"/>
      <point x="1256" y="383"/>
      <point x="1092" y="153"/>
    </contour>
  </outline>
</glyph>
<glyph name="R" format="2">
  <advance width="1255"/>
  <unicode hex="0052"/>
  <outline>
    <contour>
      <point x="203" y="0" type="line"/>
      <point x="395" y="0" type="line"/>
      <point x="395" y="640" type="line"/>
      <point x="614" y="640" type="line"/>
      <point x="975" y="0" type="line"/>
      <point x="1197" y="0" type="line"/>
      <point x="801" y="663" type="line"/>
      <point x="979" y="706"/>
      <point x="1102" y="849"/>
      <point x="1102" y="1038" type="curve" smooth="yes"/>
      <point x="1102" y="1303"/>
      <point x="882" y="1448"/>
      <point x="633" y="1448" type="curve" smooth="yes"/>
      <point x="203" y="1448" type="line"/>
    </contour>
    <contour>
      <point x="397" y="808" type="line"/>
      <point x="397" y="1278" type="line"/>
      <point x="635" y="1278" type="line" smooth="yes"/>
      <point x="785" y="1278"/>
      <point x="914" y="1199"/>
      <point x="914" y="1037" type="curve" smooth="yes"/>
      <point x="914" y="900"/>
      <point x="809" y="808"/>
      <point x="659" y="808" type="curve" smooth="yes"/>
    </contour>
  </outline>
</glyph>
<glyph name="V" format="2">
  <advance width="1359"/>
  <unicode hex="0056"/>
  <outline>
    <contour>
      <point x="759" y="0" type="line"/>
      <point x="1312" y="1448" type="line"/>
      <point x="1108" y="1448" type="line"/>
      <point x="682" y="278" type="line"/>
      <point x="255" y="1448" type="line"/>
      <point x="47" y="1448" type="line"/>
      <point x="603" y="0" type="line"/>
    </contour>
  </outline>
</glyph>
<glyph name="Y" format="2">
  <advance width="1350"/>
  <unicode hex="0059"/>
  <outline>
    <contour>
      <point x="772" y="0" type="line"/>
      <point x="772" y="565" type="line"/>
      <point x="1312" y="1448" type="line"/>
      <point x="1085" y="1448" type="line"/>
      <point x="674" y="755" type="line"/>
      <point x="264" y="1448" type="line"/>
      <point x="38" y="1448" type="line"/>
      <point x="580" y="565" type="line"/>
      <point x="580" y="0" type="line"/>
    </contour>
  </outline>
</glyph>
<glyph name="underscore" format="2">
  <advance width="1269"/>
  <unicode hex="005F"/>
  <outline>
    <contour>
      <point x="1044" y="-139" type="line"/>
      <point x="1044" y="-2" type="line"/>
      <point x="225" y="-2" type="line"/>
      <point x="225" y="-139" type="line"/>
    </contour>
  </outline>
</glyph>
<glyph name="n" format="2">
  <advance width="1174"/>
  <unicode hex="006E"/>
  <anchor x="596" y="1192" name="top"/>
  <outline>
    <contour>
      <point x="169" y="0" type="line"/>
      <point x="351" y="0" type="line" name=".av02"/>
      <point x="351" y="609" type="line" smooth="yes"/>
      <point x="351" y="772"/>
      <point x="492" y="913"/>
      <point x="653" y="913" type="curve" smooth="yes"/>
      <point x="791" y="913"/>
      <point x="863" y="817"/>
      <point x="863" y="631" type="curve" smooth="yes"/>
      <point x="863" y="0" type="line"/>
      <point x="1046" y="0" type="line" name=".av03"/>
      <point x="1046" y="647" type="line" smooth="yes"/>
      <point x="1046" y="920"/>
      <point x="906" y="1084"/>
      <point x="675" y="1084" type="curve" smooth="yes"/>
      <point x="544" y="1084"/>
      <point x="424" y="1021"/>
      <point x="351" y="914" type="curve"/>
      <point x="351" y="1064" type="line"/>
      <point x="169" y="1064" type="line"/>
    </contour>
  </outline>
</glyph>
<glyph name="o" format="2">
  <advance width="1164"/>
  <unicode hex="006F"/>
  <anchor x="582" y="1192" name="top"/>
  <anchor x="1226" y="1064" name="horn"/>
  <anchor x="700" y="0" name="ogonek"/>
  <outline>
    <contour>
      <point x="582" y="-20" type="curve" smooth="yes" name=".dv01"/>
      <point x="901" y="-20"/>
      <point x="1091" y="192"/>
      <point x="1091" y="532" type="curve" smooth="yes" name=".sh01"/>
      <point x="1091" y="867"/>
      <point x="899" y="1084"/>
      <point x="582" y="1084" type="curve" smooth="yes" name=".dv04"/>
      <point x="268" y="1084"/>
      <point x="72" y="869"/>
      <point x="72" y="532" type="curve" smooth="yes" name=".sh02"/>
      <point x="72" y="197"/>
      <point x="266" y="-20"/>
    </contour>
    <contour>
      <point x="582" y="140" type="curve" smooth="yes" name=".dv02"/>
      <point x="382" y="140"/>
      <point x="265" y="311"/>
      <point x="265" y="532" type="curve" smooth="yes" name=".sh03"/>
      <point x="265" y="757"/>
      <point x="379" y="924"/>
      <point x="582" y="924" type="curve" smooth="yes" name=".dv03"/>
      <point x="788" y="924"/>
      <point x="898" y="759"/>
      <point x="898" y="532" type="curve" smooth="yes" name=".ah01"/>
      <point x="898" y="305"/>
      <point x="790" y="140"/>
    </contour>
  </outline>
</glyph>
<glyph name="r" format="2">
  <advance width="836"/>
  <unicode hex="0072"/>
  <outline>
    <contour>
      <point x="171" y="0" type="line"/>
      <point x="350" y="0" type="line"/>
      <point x="350" y="474" type="line" smooth="yes"/>
      <point x="350" y="643"/>
      <point x="413" y="919"/>
      <point x="627" y="919" type="curve" smooth="yes"/>
      <point x="680" y="919"/>
      <point x="727" y="905"/>
      <point x="760" y="875" type="curve"/>
      <point x="834" y="1031" type="line"/>
      <point x="777" y="1067"/>
      <point x="706" y="1084"/>
      <point x="641" y="1084" type="curve" smooth="yes"/>
      <point x="507" y="1084"/>
      <point x="388" y="997"/>
      <point x="352" y="866" type="curve"/>
      <point x="352" y="1064" type="line"/>
      <point x="171" y="1064" type="line"/>
    </contour>
  </outline>
</glyph>
<glyph name="y" format="2">
  <advance width="1044"/>
  <unicode hex="0079"/>
  <anchor x="526" y="1192" name="top"/>
  <outline>
    <contour>
      <point x="447" y="-441" type="line"/>
      <point x="1029" y="1064" type="line"/>
      <point x="820" y="1064" type="line"/>
      <point x="526" y="243" type="line"/>
      <point x="228" y="1064" type="line"/>
      <point x="19" y="1064" type="line"/>
      <point x="431" y="24" type="line"/>
      <point x="245" y="-441" type="line"/>
    </contour>
  </outline>
</glyph>
<glyph name="brokenbar" format="2">
  <advance width="636"/>
  <unicode hex="00A6"/>
  <outline>
    <contour>
      <point x="386" y="750" type="line"/>
      <point x="386" y="1510" type="line"/>
      <point x="248" y="1510" type="line"/>
      <point x="248" y="750" type="line"/>
    </contour>
    <contour>
      <point x="386" y="-315" type="line"/>
      <point x="386" y="429" type="line"/>
      <point x="248" y="429" type="line"/>
      <point x="248" y="-315" type="line"/>
    </contour>
  </outline>
</glyph>
<glyph name="section" format="2">
  <advance width="1125"/>
  <unicode hex="00A7"/>
  <outline>
    <contour>
      <point x="167" y="228" type="line"/>
      <point x="225" y="75"/>
      <point x="383" y="-18"/>
      <point x="574" y="-18" type="curve" smooth="yes"/>
      <point x="800" y="-18"/>
      <point x="947" y="103"/>
      <point x="947" y="287" type="curve" smooth="yes"/>
      <point x="947" y="383"/>
      <point x="901" y="459"/>
      <point x="822" y="511" type="curve"/>
      <point x="822" y="462" type="line"/>
      <point x="901" y="522"/>
      <point x="947" y="608"/>
      <point x="947" y="705" type="curve" smooth="yes"/>
      <point x="947" y="866"/>
      <point x="853" y="949"/>
      <point x="607" y="1002" type="curve" smooth="yes"/>
      <point x="574" y="1009" type="line" smooth="yes"/>
      <point x="423" y="1041"/>
      <point x="343" y="1074"/>
      <point x="343" y="1166" type="curve" smooth="yes"/>
      <point x="343" y="1259"/>
      <point x="434" y="1322"/>
      <point x="554" y="1322" type="curve" smooth="yes"/>
      <point x="666" y="1322"/>
      <point x="765" y="1272"/>
      <point x="809" y="1195" type="curve"/>
      <point x="922" y="1271" type="line"/>
      <point x="853" y="1396"/>
      <point x="721" y="1468"/>
      <point x="545" y="1468" type="curve" smooth="yes"/>
      <point x="338" y="1468"/>
      <point x="178" y="1346"/>
      <point x="178" y="1175" type="curve" smooth="yes"/>
      <point x="178" y="1064"/>
      <point x="223" y="994"/>
      <point x="314" y="937" type="curve"/>
      <point x="311" y="990" type="line"/>
      <point x="218" y="916"/>
      <point x="176" y="838"/>
      <point x="176" y="744" type="curve" smooth="yes"/>
      <point x="176" y="586"/>
      <point x="274" y="507"/>
      <point x="541" y="449" type="curve"/>
      <point x="573" y="441" type="line" smooth="yes"/>
      <point x="723" y="407"/>
      <point x="790" y="357"/>
      <point x="790" y="273" type="curve" smooth="yes"/>
      <point x="790" y="184"/>
      <point x="711" y="129"/>
      <point x="577" y="129" type="curve" smooth="yes"/>
      <point x="444" y="129"/>
      <point x="341" y="194"/>
      <point x="301" y="303" type="curve"/>
    </contour>
    <contour>
      <point x="335" y="749" type="curve" smooth="yes"/>
      <point x="335" y="829"/>
      <point x="389" y="895"/>
      <point x="478" y="918" type="curve"/>
      <point x="413" y="917" type="line"/>
      <point x="449" y="905"/>
      <point x="481" y="896"/>
      <point x="528" y="887" type="curve" smooth="yes"/>
      <point x="562" y="880" type="line" smooth="yes"/>
      <point x="733" y="841"/>
      <point x="790" y="798"/>
      <point x="790" y="706" type="curve" smooth="yes"/>
      <point x="790" y="620"/>
      <point x="745" y="566"/>
      <point x="656" y="547" type="curve"/>
      <point x="717" y="539" type="line"/>
      <point x="693" y="551"/>
      <point x="649" y="563"/>
      <point x="621" y="570" type="curve"/>
      <point x="588" y="577" type="line" smooth="yes"/>
      <point x="397" y="621"/>
      <point x="335" y="664"/>
    </contour>
  </outline>
</glyph>
<glyph name="copyright" format="2">
  <advance width="1794"/>
  <unicode hex="00A9"/>
  <outline>
    <contour>
      <point x="897" y="-51" type="curve" smooth="yes"/>
      <point x="1324" y="-51"/>
      <point x="1678" y="293"/>
      <point x="1678" y="724" type="curve" smooth="yes"/>
      <point x="1678" y="1152"/>
      <point x="1325" y="1498"/>
      <point x="897" y="1498" type="curve" smooth="yes"/>
      <point x="470" y="1498"/>
      <point x="115" y="1154"/>
      <point x="115" y="724" type="curve" smooth="yes"/>
      <point x="115" y="293"/>
      <point x="466" y="-51"/>
    </contour>
    <contour>
      <point x="897" y="90" type="curve" smooth="yes"/>
      <point x="554" y="90"/>
      <point x="257" y="379"/>
      <point x="257" y="724" type="curve" smooth="yes"/>
      <point x="257" y="1068"/>
      <point x="555" y="1356"/>
      <point x="897" y="1356" type="curve" smooth="yes"/>
      <point x="1238" y="1356"/>
      <point x="1536" y="1069"/>
      <point x="1536" y="724" type="curve" smooth="yes"/>
      <point x="1536" y="379"/>
      <point x="1241" y="90"/>
    </contour>
    <contour>
      <point x="914" y="296" type="curve" smooth="yes"/>
      <point x="1060" y="296"/>
      <point x="1174" y="363"/>
      <point x="1242" y="509" type="curve"/>
      <point x="1110" y="565" type="line"/>
      <point x="1069" y="484"/>
      <point x="1003" y="441"/>
      <point x="912" y="441" type="curve" smooth="yes"/>
      <point x="748" y="441"/>
      <point x="680" y="569"/>
      <point x="680" y="722" type="curve" smooth="yes"/>
      <point x="680" y="874"/>
      <point x="751" y="1003"/>
      <point x="914" y="1003" type="curve" smooth="yes"/>
      <point x="1001" y="1003"/>
      <point x="1067" y="966"/>
      <point x="1112" y="881" type="curve"/>
      <point x="1242" y="936" type="line"/>
      <point x="1177" y="1076"/>
      <point x="1055" y="1146"/>
      <point x="914" y="1146" type="curve" smooth="yes"/>
      <point x="661" y="1146"/>
      <point x="541" y="948"/>
      <point x="541" y="722" type="curve" smooth="yes"/>
      <point x="541" y="489"/>
      <point x="665" y="296"/>
    </contour>
  </outline>
</glyph>
<glyph name="twosuperior" format="2">
  <advance width="873"/>
  <unicode hex="00B2"/>
  <outline>
    <contour>
      <point x="71" y="932" type="line"/>
      <point x="785" y="932" type="line" name=".dv01"/>
      <point x="785" y="1055" type="line" name=".dv02"/>
      <point x="274" y="1055" type="line" name=".sh03"/>
      <point x="534" y="1213"/>
      <point x="738" y="1419"/>
      <point x="738" y="1625" type="curve" smooth="yes" name=".sh04"/>
      <point x="738" y="1785"/>
      <point x="617" y="1900"/>
      <point x="432" y="1900" type="curve" smooth="yes" name=".dv04"/>
      <point x="249" y="1900"/>
      <point x="119" y="1766"/>
      <point x="113" y="1576" type="curve" name=".sh01"/>
      <point x="250" y="1566" type="line" name=".sh02"/>
      <point x="254" y="1689"/>
      <point x="319" y="1773"/>
      <point x="435" y="1773" type="curve" smooth="yes" name=".dv03"/>
      <point x="539" y="1773"/>
      <point x="594" y="1708"/>
      <point x="594" y="1606" type="curve" smooth="yes" name=".ah01"/>
      <point x="594" y="1439"/>
      <point x="316" y="1177"/>
      <point x="71" y="1043" type="curve"/>
    </contour>
  </outline>
</glyph>
<glyph name="onesuperior" format="2">
  <advance width="653"/>
  <unicode hex="00B9"/>
  <outline>
    <contour>
      <point x="464" y="934" type="line" name=".av01"/>
      <point x="464" y="1900" type="line" name=".av02"/>
      <point x="332" y="1900" type="line"/>
      <point x="332" y="1881" type="line" smooth="yes" name=".av03"/>
      <point x="332" y="1808"/>
      <point x="292" y="1766"/>
      <point x="217" y="1766" type="curve" smooth="yes"/>
      <point x="66" y="1766" type="line" name=".dv02"/>
      <point x="66" y="1656" type="line" name=".dv01"/>
      <point x="324" y="1656" type="line" name=".dh01"/>
      <point x="324" y="934" type="line"/>
    </contour>
  </outline>
</glyph>
<glyph name="AE" format="2">
  <advance width="1865"/>
  <unicode hex="00C6"/>
  <anchor x="1066" y="1618" name="top"/>
  <outline>
    <contour>
      <point x="1760" y="0" type="line" name=".dv01"/>
      <point x="1760" y="164" type="line" name=".dv02"/>
      <point x="993" y="164" type="line" name=".dh02"/>
      <point x="993" y="643" type="line" name=".dv07"/>
      <point x="1669" y="643" type="line"/>
      <point x="1669" y="804" type="line"/>
      <point x="993" y="804" type="line" name=".dv08"/>
      <point x="993" y="1290" type="line" name=".sv01"/>
      <point x="1760" y="1290" type="line"/>
      <point x="1760" y="1447" type="line" name=".av01"/>
      <point x="594" y="1447" type="line" name=".dv04"/>
      <point x="44" y="0" type="line" name=".sv02"/>
      <point x="240" y="0" type="line"/>
      <point x="354" y="314" type="line" name=".dv05"/>
      <point x="811" y="314" type="line"/>
      <point x="811" y="0" type="line" name=".dh01"/>
    </contour>
    <contour>
      <point x="811" y="475" type="line" name=".sh01"/>
      <point x="413" y="475" type="line" name=".dv06"/>
      <point x="714" y="1290" type="line" name=".dv03"/>
      <point x="811" y="1290" type="line"/>
    </contour>
  </outline>
</glyph>
<glyph name="ccedilla" format="2">
  <advance width="1029"/>
  <unicode hex="00E7"/>
  <outline>
    <contour>
      <point x="309" y="-395" type="line"/>
      <point x="339" y="-470"/>
      <point x="417" y="-523"/>
      <point x="507" y="-523" type="curve" smooth="yes"/>
      <point x="631" y="-523"/>
      <point x="721" y="-433"/>
      <point x="721" y="-305" type="curve" smooth="yes"/>
      <point x="721" y="-194"/>
      <point x="645" y="-128"/>
      <point x="535" y="-117" type="curve"/>
      <point x="588" y="-19" type="line"/>
      <point x="769" y="-9"/>
      <point x="905" y="91"/>
      <point x="970" y="266" type="curve"/>
      <point x="803" y="335" type="line"/>
      <point x="769" y="222"/>
      <point x="673" y="146"/>
      <point x="554" y="146" type="curve" smooth="yes"/>
      <point x="337" y="146"/>
      <point x="269" y="346"/>
      <point x="269" y="530" type="curve" smooth="yes"/>
      <point x="269" y="713"/>
      <point x="343" y="917"/>
      <point x="554" y="917" type="curve" smooth="yes"/>
      <point x="669" y="917"/>
      <point x="771" y="843"/>
      <point x="803" y="728" type="curve"/>
      <point x="981" y="802" type="line"/>
      <point x="903" y="978"/>
      <point x="750" y="1084"/>
      <point x="557" y="1084" type="curve" smooth="yes"/>
      <point x="248" y="1084"/>
      <point x="83" y="817"/>
      <point x="83" y="529" type="curve" smooth="yes"/>
      <point x="83" y="277"/>
      <point x="207" y="35"/>
      <point x="466" y="-12" type="curve"/>
      <point x="380" y="-173" type="line"/>
      <point x="393" y="-194" type="line"/>
      <point x="444" y="-194" type="line" smooth="yes"/>
      <point x="524" y="-194"/>
      <point x="601" y="-234"/>
      <point x="601" y="-313" type="curve" smooth="yes"/>
      <point x="601" y="-367"/>
      <point x="564" y="-408"/>
      <point x="515" y="-408" type="curve" smooth="yes"/>
      <point x="467" y="-408"/>
      <point x="430" y="-380"/>
      <point x="419" y="-345" type="curve"/>
    </contour>
  </outline>
</glyph>
<glyph name="dcroat" format="2">
  <advance width="1192"/>
  <unicode hex="0111"/>
  <outline>
    <contour>
      <point x="539" y="1334" type="line"/>
      <point x="539" y="1201" type="line"/>
      <point x="1206" y="1201" type="line"/>
      <point x="1206" y="1334" type="line"/>
    </contour>
    <contour>
      <point x="518" y="-20" type="curve" smooth="yes"/>
      <point x="656" y="-20"/>
      <point x="764" y="25"/>
      <point x="845" y="138" type="curve"/>
      <point x="851" y="0" type="line"/>
      <point x="1023" y="0" type="line"/>
      <point x="1023" y="1448" type="line"/>
      <point x="841" y="1448" type="line"/>
      <point x="841" y="932" type="line"/>
      <point x="763" y="1038"/>
      <point x="649" y="1084"/>
      <point x="520" y="1084" type="curve" smooth="yes"/>
      <point x="219" y="1084"/>
      <point x="89" y="796"/>
      <point x="89" y="531" type="curve" smooth="yes"/>
      <point x="89" y="270"/>
      <point x="217" y="-20"/>
    </contour>
    <contour>
      <point x="566" y="145" type="curve" smooth="yes"/>
      <point x="351" y="145"/>
      <point x="273" y="337"/>
      <point x="273" y="532" type="curve" smooth="yes"/>
      <point x="273" y="718"/>
      <point x="349" y="919"/>
      <point x="566" y="919" type="curve" smooth="yes"/>
      <point x="784" y="919"/>
      <point x="857" y="719"/>
      <point x="857" y="532" type="curve" smooth="yes"/>
      <point x="857" y="337"/>
      <point x="780" y="145"/>
    </contour>
  </outline>
</glyph>
<glyph name="lslash" format="2">
  <advance width="560"/>
  <unicode hex="0142"/>
  <outline>
    <contour>
      <point x="30" y="618" type="line"/>
      <point x="30" y="418" type="line"/>
      <point x="559" y="771" type="line"/>
      <point x="559" y="971" type="line"/>
    </contour>
    <contour>
      <point x="357" y="-20" type="curve" smooth="yes"/>
      <point x="404" y="-20"/>
      <point x="454" y="-13"/>
      <point x="509" y="-1" type="curve"/>
      <point x="509" y="149" type="line"/>
      <point x="478" y="144"/>
      <point x="446" y="140"/>
      <point x="412" y="140" type="curve" smooth="yes"/>
      <point x="374" y="140"/>
      <point x="352" y="162"/>
      <point x="352" y="200" type="curve" smooth="yes"/>
      <point x="352" y="1448" type="line"/>
      <point x="165" y="1448" type="line"/>
      <point x="165" y="178" type="line" smooth="yes"/>
      <point x="165" y="41"/>
      <point x="228" y="-20"/>
    </contour>
  </outline>
</glyph>
<glyph name="Tbar" format="2">
  <advance width="1260"/>
  <unicode hex="0166"/>
  <outline>
    <contour>
      <point x="726" y="0" type="line"/>
      <point x="726" y="657" type="line"/>
      <point x="957" y="657" type="line"/>
      <point x="957" y="789" type="line"/>
      <point x="726" y="789" type="line"/>
      <point x="726" y="1284" type="line"/>
      <point x="1204" y="1284" type="line"/>
      <point x="1204" y="1447" type="line"/>
      <point x="55" y="1447" type="line"/>
      <point x="55" y="1284" type="line"/>
      <point x="533" y="1284" type="line"/>
      <point x="533" y="789" type="line"/>
      <point x="308" y="789" type="line"/>
      <point x="308" y="657" type="line"/>
      <point x="533" y="657" type="line"/>
      <point x="533" y="0" type="line"/>
    </contour>
  </outline>
</glyph>
<glyph name="eturned" format="2">
  <advance width="1074"/>
  <unicode hex="01DD"/>
  <outline>
    <contour>
      <point x="543" y="-12" type="curve" smooth="yes"/>
      <point x="831" y="-12"/>
      <point x="1018" y="218"/>
      <point x="1018" y="539" type="curve" smooth="yes"/>
      <point x="1018" y="844"/>
      <point x="835" y="1077"/>
      <point x="527" y="1077" type="curve" smooth="yes"/>
      <point x="347" y="1077"/>
      <point x="216" y="1025"/>
      <point x="111" y="911" type="curve"/>
      <point x="236" y="802" type="line"/>
      <point x="312" y="885"/>
      <point x="401" y="914"/>
      <point x="528" y="914" type="curve" smooth="yes"/>
      <point x="708" y="914"/>
      <point x="816" y="786"/>
      <point x="823" y="592" type="curve"/>
      <point x="85" y="592" type="line"/>
      <point x="82" y="572"/>
      <point x="80" y="549"/>
      <point x="80" y="528" type="curve" smooth="yes"/>
      <point x="80" y="196"/>
      <point x="237" y="-12"/>
    </contour>
    <contour>
      <point x="543" y="144" type="curve" smooth="yes"/>
      <point x="368" y="144"/>
      <point x="266" y="254"/>
      <point x="259" y="450" type="curve"/>
      <point x="823" y="450" type="line"/>
      <point x="813" y="267"/>
      <point x="712" y="144"/>
    </contour>
  </outline>
</glyph>
<glyph name="apostrophemod" format="2">
  <advance width="571"/>
  <unicode hex="02BC"/>
  <outline>
    <contour>
      <point x="250" y="929" type="line" name=".sv01"/>
      <point x="487" y="1448" type="line" name=".av01"/>
      <point x="264" y="1448" type="line"/>
      <point x="135" y="929" type="line"/>
    </contour>
  </outline>
</glyph>
<glyph name="caron" format="2">
  <advance width="759"/>
  <unicode hex="02C7"/>
  <outline>
    <contour>
      <point x="379" y="1182" type="line"/>
      <point x="711" y="1520" type="line"/>
      <point x="539" y="1520" type="line"/>
      <point x="379" y="1349" type="line"/>
      <point x="220" y="1520" type="line"/>
      <point x="48" y="1520" type="line"/>
    </contour>
  </outline>
</glyph>
<glyph name="breve" format="2">
  <advance width="741"/>
  <unicode hex="02D8"/>
  <outline>
    <contour>
      <point x="371" y="1192" type="curve" smooth="yes"/>
      <point x="561" y="1192"/>
      <point x="687" y="1284"/>
      <point x="687" y="1468" type="curve"/>
      <point x="537" y="1468" type="line"/>
      <point x="537" y="1372"/>
      <point x="463" y="1317"/>
      <point x="371" y="1317" type="curve" smooth="yes"/>
      <point x="281" y="1317"/>
      <point x="203" y="1372"/>
      <point x="203" y="1468" type="curve"/>
      <point x="54" y="1468" type="line"/>
      <point x="54" y="1285"/>
      <point x="181" y="1192"/>
    </contour>
  </outline>
</glyph>
<glyph name="gravedblmiddlemod" format="2">
  <advance width="1097"/>
  <unicode hex="02F5"/>
  <outline>
    <contour>
      <point x="567" y="670" type="line"/>
      <point x="345" y="977" type="line"/>
      <point x="127" y="977" type="line"/>
      <point x="409" y="670" type="line"/>
    </contour>
    <contour>
      <point x="949" y="670" type="line"/>
      <point x="727" y="977" type="line"/>
      <point x="506" y="977" type="line"/>
      <point x="791" y="670" type="line"/>
    </contour>
  </outline>
</glyph>
<glyph name="macroncomb" format="2">
  <unicode hex="0304"/>
  <anchor x="-450" y="1192" name="_top"/>
  <outline>
    <contour>
      <point x="-730" y="1266" type="line"/>
      <point x="-172" y="1266" type="line"/>
      <point x="-172" y="1415" type="line"/>
      <point x="-730" y="1415" type="line"/>
    </contour>
  </outline>
</glyph>
<glyph name="brevecomb" format="2">
  <unicode hex="0306"/>
  <anchor x="-434" y="1192" name="_top"/>
  <outline>
    <contour>
      <point x="-434" y="1192" type="curve" smooth="yes"/>
      <point x="-244" y="1192"/>
      <point x="-118" y="1284"/>
      <point x="-118" y="1468" type="curve"/>
      <point x="-268" y="1468" type="line"/>
      <point x="-268" y="1372"/>
      <point x="-342" y="1317"/>
      <point x="-434" y="1317" type="curve" smooth="yes"/>
      <point x="-524" y="1317"/>
      <point x="-602" y="1372"/>
      <point x="-602" y="1468" type="curve"/>
      <point x="-751" y="1468" type="line"/>
      <point x="-751" y="1285"/>
      <point x="-624" y="1192"/>
    </contour>
  </outline>
</glyph>
<glyph name="hookabovecomb" format="2">
  <unicode hex="0309"/>
  <anchor x="-317" y="1104" name="_top"/>
  <outline>
    <contour>
      <point x="-356" y="1104" type="line" name=".av01"/>
      <point x="-170" y="1134"/>
      <point x="-94" y="1190"/>
      <point x="-94" y="1301" type="curve" smooth="yes" name=".dh01"/>
      <point x="-94" y="1432"/>
      <point x="-217" y="1510"/>
      <point x="-423" y="1510" type="curve" smooth="yes"/>
      <point x="-443" y="1510" type="line" name=".dv02"/>
      <point x="-443" y="1395" type="line" name=".dv01"/>
      <point x="-297" y="1395"/>
      <point x="-226" y="1360"/>
      <point x="-226" y="1289" type="curve" smooth="yes" name=".sh01"/>
      <point x="-226" y="1232"/>
      <point x="-273" y="1199"/>
      <point x="-378" y="1182" type="curve"/>
    </contour>
  </outline>
</glyph>
<glyph name="hungarumlautcomb" format="2">
  <unicode hex="030B"/>
  <anchor x="-535" y="1192" name="_top"/>
  <outline>
    <contour>
      <point x="-697" y="1192" type="line"/>
      <point x="-406" y="1495" type="line"/>
      <point x="-622" y="1495" type="line"/>
      <point x="-845" y="1192" type="line"/>
    </contour>
    <contour>
      <point x="-353" y="1192" type="line"/>
      <point x="-62" y="1495" type="line"/>
      <point x="-278" y="1495" type="line"/>
      <point x="-501" y="1192" type="line"/>
    </contour>
  </outline>
</glyph>
<glyph name="Beta" format="2">
  <advance width="1288"/>
  <unicode hex="0392"/>
  <outline>
    <contour>
      <point x="204" y="0" type="line"/>
      <point x="719" y="0" type="line" smooth="yes" name=".dv01"/>
      <point x="1001" y="0"/>
      <point x="1184" y="158"/>
      <point x="1184" y="401" type="curve" smooth="yes" name=".sh01"/>
      <point x="1184" y="596"/>
      <point x="1086" y="730"/>
      <point x="906" y="781" type="curve" name=".iv01"/>
      <point x="907" y="755" type="line"/>
      <point x="1039" y="806"/>
      <point x="1112" y="923"/>
      <point x="1112" y="1075" type="curve" smooth="yes" name=".dh04"/>
      <point x="1112" y="1304"/>
      <point x="934" y="1448"/>
      <point x="649" y="1448" type="curve" smooth="yes" name=".dv04"/>
      <point x="204" y="1448" type="line" name=".dh01"/>
    </contour>
    <contour>
      <point x="406" y="834" type="line" name=".dv06"/>
      <point x="406" y="1264" type="line" name=".dh02"/>
      <point x="652" y="1264" type="line" smooth="yes" name=".dv03"/>
      <point x="821" y="1264"/>
      <point x="913" y="1189"/>
      <point x="913" y="1056" type="curve" smooth="yes" name=".dh03"/>
      <point x="913" y="912"/>
      <point x="824" y="834"/>
      <point x="661" y="834" type="curve" smooth="yes"/>
    </contour>
    <contour>
      <point x="406" y="193" type="line" name=".sh02"/>
      <point x="406" y="654" type="line" name=".dv05"/>
      <point x="720" y="654" type="line" smooth="yes"/>
      <point x="883" y="654"/>
      <point x="982" y="566"/>
      <point x="982" y="419" type="curve" smooth="yes" name=".ih01"/>
      <point x="982" y="270"/>
      <point x="894" y="193"/>
      <point x="723" y="193" type="curve" smooth="yes" name=".dv02"/>
    </contour>
  </outline>
</glyph>
<glyph name="Theta" format="2">
  <advance width="1544"/>
  <unicode hex="0398"/>
  <anchor x="169" y="1479" name="tonos"/>
  <anchor x="778" y="1632" name="top"/>
  <outline>
    <contour>
      <point x="1126" y="641" type="line"/>
      <point x="1126" y="823" type="line"/>
      <point x="444" y="823" type="line"/>
      <point x="444" y="641" type="line"/>
    </contour>
    <contour>
      <point x="784" y="-20" type="curve" smooth="yes" name=".dv01"/>
      <point x="1203" y="-20"/>
      <point x="1460" y="276"/>
      <point x="1460" y="724" type="curve" smooth="yes"/>
      <point x="1460" y="1173"/>
      <point x="1203" y="1468"/>
      <point x="784" y="1468" type="curve" smooth="yes"/>
      <point x="365" y="1468"/>
      <point x="108" y="1172"/>
      <point x="108" y="724" type="curve" smooth="yes"/>
      <point x="108" y="276"/>
      <point x="365" y="-20"/>
    </contour>
    <contour>
      <point x="784" y="164" type="curve" smooth="yes" name=".dv02"/>
      <point x="473" y="164"/>
      <point x="322" y="401"/>
      <point x="322" y="724" type="curve" smooth="yes" name=".sh03"/>
      <point x="322" y="1053"/>
      <point x="478" y="1284"/>
      <point x="784" y="1284" type="curve" smooth="yes"/>
      <point x="1094" y="1284"/>
      <point x="1246" y="1049"/>
      <point x="1246" y="724" type="curve" smooth="yes" name=".ah01"/>
      <point x="1246" y="395"/>
      <point x="1091" y="164"/>
    </contour>
  </outline>
</glyph>
<glyph name="Pi" format="2">
  <advance width="1496"/>
  <unicode hex="03A0"/>
  <outline>
    <contour>
      <point x="1292" y="0" type="line" name=".av01"/>
      <point x="1292" y="1446" type="line" name=".sh01"/>
      <point x="204" y="1446" type="line" name=".dv02"/>
      <point x="204" y="0" type="line" name=".av02"/>
      <point x="407" y="0" type="line"/>
      <point x="407" y="1264" type="line" name=".dv01"/>
      <point x="1088" y="1264" type="line" name=".ah01"/>
      <point x="1088" y="0" type="line"/>
    </contour>
  </outline>
</glyph>
<glyph name="Tau" format="2">
  <advance width="1240"/>
  <unicode hex="03A4"/>
  <anchor x="601" y="0" name="cedilla"/>
  <outline>
    <contour>
      <point x="517" y="0" type="line"/>
      <point x="723" y="0" type="line" name=".av01"/>
      <point x="723" y="1271" type="line" name=".dh02"/>
      <point x="1196" y="1271" type="line" name=".dv01"/>
      <point x="1196" y="1448" type="line" name=".dv02"/>
      <point x="43" y="1448" type="line"/>
      <point x="43" y="1271" type="line" name=".sv01"/>
      <point x="517" y="1271" type="line" name=".dh01"/>
    </contour>
  </outline>
</glyph>
<glyph name="beta" format="2">
  <advance width="1199"/>
  <unicode hex="03B2"/>
  <outline>
    <contour>
      <point x="614" y="1365" type="curve" smooth="yes"/>
      <point x="752" y="1365"/>
      <point x="843" y="1258"/>
      <point x="843" y="1105" type="curve" smooth="yes"/>
      <point x="843" y="940"/>
      <point x="767" y="841"/>
      <point x="652" y="841" type="curve" smooth="yes"/>
      <point x="503" y="841" type="line"/>
      <point x="503" y="684" type="line"/>
      <point x="673" y="684" type="line" smooth="yes"/>
      <point x="812" y="684"/>
      <point x="918" y="565"/>
      <point x="918" y="401" type="curve" smooth="yes"/>
      <point x="918" y="222"/>
      <point x="819" y="115"/>
      <point x="650" y="115" type="curve" smooth="yes"/>
      <point x="490" y="115"/>
      <point x="369" y="235"/>
      <point x="369" y="407" type="curve" smooth="yes"/>
      <point x="369" y="1057" type="line" smooth="yes"/>
      <point x="369" y="1253"/>
      <point x="453" y="1365"/>
    </contour>
    <contour>
      <point x="609" y="1504" type="curve" smooth="yes"/>
      <point x="331" y="1504"/>
      <point x="169" y="1350"/>
      <point x="169" y="1107" type="curve" smooth="yes"/>
      <point x="169" y="-402" type="line"/>
      <point x="369" y="-402" type="line"/>
      <point x="369" y="130" type="line"/>
      <point x="440" y="30"/>
      <point x="556" y="-26"/>
      <point x="685" y="-26" type="curve" smooth="yes"/>
      <point x="957" y="-26"/>
      <point x="1120" y="144"/>
      <point x="1120" y="397" type="curve" smooth="yes"/>
      <point x="1120" y="594"/>
      <point x="1024" y="741"/>
      <point x="845" y="792" type="curve"/>
      <point x="972" y="847"/>
      <point x="1043" y="961"/>
      <point x="1043" y="1107" type="curve" smooth="yes"/>
      <point x="1043" y="1333"/>
      <point x="870" y="1504"/>
    </contour>
  </outline>
</glyph>
<glyph name="mu" format="2">
  <advance width="1355"/>
  <unicode hex="03BC"/>
  <outline>
    <contour>
      <point x="156" y="-416" type="line"/>
      <point x="359" y="-416" type="line"/>
      <point x="359" y="1047" type="line"/>
      <point x="156" y="1047" type="line"/>
    </contour>
    <contour>
      <point x="1144" y="-29" type="curve" smooth="yes"/>
      <point x="1206" y="-29"/>
      <point x="1268" y="-16"/>
      <point x="1322" y="10" type="curve"/>
      <point x="1322" y="146" type="line"/>
      <point x="1285" y="128"/>
      <point x="1243" y="116"/>
      <point x="1200" y="116" type="curve" smooth="yes"/>
      <point x="1112" y="116"/>
      <point x="1076" y="168"/>
      <point x="1076" y="294" type="curve" smooth="yes"/>
      <point x="1076" y="1047" type="line"/>
      <point x="873" y="1047" type="line"/>
      <point x="873" y="292" type="line" smooth="yes"/>
      <point x="873" y="82"/>
      <point x="965" y="-29"/>
    </contour>
    <contour>
      <point x="359" y="369" type="curve"/>
      <point x="321" y="369" type="line"/>
      <point x="321" y="95" type="line"/>
      <point x="359" y="62" type="line"/>
      <point x="419" y="6"/>
      <point x="499" y="-27"/>
      <point x="583" y="-27" type="curve" smooth="yes"/>
      <point x="728" y="-27"/>
      <point x="836" y="42"/>
      <point x="903" y="193" type="curve"/>
      <point x="894" y="418" type="line"/>
      <point x="873" y="411" type="line"/>
      <point x="873" y="242"/>
      <point x="764" y="112"/>
      <point x="600" y="112" type="curve" smooth="yes"/>
      <point x="454" y="112"/>
      <point x="359" y="212"/>
    </contour>
  </outline>
</glyph>
<glyph name="xi" format="2">
  <advance width="1016"/>
  <unicode hex="03BE"/>
  <outline>
    <contour>
      <point x="113" y="375" type="curve" smooth="yes"/>
      <point x="113" y="146"/>
      <point x="248" y="-12"/>
      <point x="484" y="-12" type="curve" smooth="yes"/>
      <point x="783" y="-12" type="line" smooth="yes"/>
      <point x="836" y="-12"/>
      <point x="849" y="-38"/>
      <point x="849" y="-63" type="curve"/>
      <point x="847" y="-96"/>
      <point x="824" y="-163"/>
      <point x="814" y="-193" type="curve" smooth="yes"/>
      <point x="740" y="-410" type="line"/>
      <point x="895" y="-410" type="line"/>
      <point x="979" y="-160" type="line" smooth="yes"/>
      <point x="989" y="-129"/>
      <point x="1009" y="-52"/>
      <point x="1009" y="-6" type="curve" smooth="yes"/>
      <point x="1009" y="72"/>
      <point x="951" y="142"/>
      <point x="830" y="142" type="curve" smooth="yes"/>
      <point x="550" y="142" type="line" smooth="yes"/>
      <point x="419" y="142"/>
      <point x="314" y="206"/>
      <point x="314" y="394" type="curve" smooth="yes"/>
      <point x="314" y="593"/>
      <point x="501" y="655"/>
      <point x="669" y="655" type="curve" smooth="yes"/>
      <point x="864" y="655" type="line"/>
      <point x="864" y="802" type="line"/>
      <point x="606" y="802" type="line" smooth="yes"/>
      <point x="350" y="802"/>
      <point x="113" y="676"/>
    </contour>
    <contour>
      <point x="138" y="1304" type="line"/>
      <point x="922" y="1304" type="line"/>
      <point x="922" y="1451" type="line"/>
      <point x="138" y="1451" type="line"/>
    </contour>
    <contour>
      <point x="637" y="739" type="line"/>
      <point x="637" y="802" type="line"/>
      <point x="506" y="825"/>
      <point x="374" y="919"/>
      <point x="374" y="1069" type="curve" smooth="yes"/>
      <point x="374" y="1193"/>
      <point x="447" y="1286"/>
      <point x="609" y="1345" type="curve"/>
      <point x="399" y="1346" type="line"/>
      <point x="277" y="1285"/>
      <point x="189" y="1179"/>
      <point x="189" y="1047" type="curve" smooth="yes"/>
      <point x="189" y="891"/>
      <point x="325" y="781"/>
      <point x="472" y="739" type="curve"/>
    </contour>
  </outline>
</glyph>
<glyph name="omicron" format="2">
  <advance width="1166"/>
  <unicode hex="03BF"/>
  <anchor x="583" y="1192" name="top"/>
  <anchor x="1227" y="1064" name="horn"/>
  <anchor x="705" y="0" name="ogonek"/>
  <outline>
    <contour>
      <point x="583" y="-20" type="curve" smooth="yes"/>
      <point x="905" y="-20"/>
      <point x="1098" y="193"/>
      <point x="1098" y="532" type="curve" smooth="yes" name=".sh01"/>
      <point x="1098" y="866"/>
      <point x="905" y="1084"/>
      <point x="583" y="1084" type="curve" smooth="yes" name=".dv04"/>
      <point x="266" y="1084"/>
      <point x="68" y="868"/>
      <point x="68" y="532" type="curve" smooth="yes" name=".sh02"/>
      <point x="68" y="198"/>
      <point x="264" y="-20"/>
    </contour>
    <contour>
      <point x="583" y="151" type="curve" smooth="yes" name=".dv02"/>
      <point x="384" y="151"/>
      <point x="275" y="320"/>
      <point x="275" y="532" type="curve" smooth="yes" name=".sh03"/>
      <point x="275" y="749"/>
      <point x="382" y="913"/>
      <point x="583" y="913" type="curve" smooth="yes" name=".dv03"/>
      <point x="788" y="913"/>
      <point x="891" y="749"/>
      <point x="891" y="532" type="curve" smooth="yes" name=".ah01"/>
      <point x="891" y="315"/>
      <point x="790" y="151"/>
    </contour>
  </outline>
</glyph>
<glyph name="tau" format="2">
  <advance width="1072"/>
  <unicode hex="03C4"/>
  <outline>
    <contour>
      <point x="436" y="925" type="line"/>
      <point x="436" y="174" type="line" smooth="yes"/>
      <point x="436" y="46"/>
      <point x="505" y="-17"/>
      <point x="666" y="-17" type="curve" smooth="yes"/>
      <point x="705" y="-17"/>
      <point x="789" y="-13"/>
      <point x="829" y="-3" type="curve"/>
      <point x="829" y="115" type="line"/>
      <point x="810" y="111"/>
      <point x="781" y="107"/>
      <point x="760" y="107" type="curve" smooth="yes"/>
      <point x="657" y="107"/>
      <point x="639" y="151"/>
      <point x="639" y="241" type="curve" smooth="yes"/>
      <point x="639" y="925" type="line"/>
    </contour>
    <contour>
      <point x="53" y="895" type="line"/>
      <point x="1020" y="899" type="line"/>
      <point x="1020" y="1048" type="line"/>
      <point x="53" y="1048" type="line"/>
    </contour>
  </outline>
</glyph>
<glyph name="omega" format="2">
  <advance width="1504"/>
  <unicode hex="03C9"/>
  <anchor x="729" y="1255" name="tonos.top"/>
  <outline>
    <contour>
      <point x="280" y="1047" type="line"/>
      <point x="129" y="872"/>
      <point x="44" y="710"/>
      <point x="44" y="488" type="curve" smooth="yes"/>
      <point x="44" y="228"/>
      <point x="152" y="-27"/>
      <point x="436" y="-27" type="curve" smooth="yes"/>
      <point x="600" y="-27"/>
      <point x="691" y="66"/>
      <point x="736" y="176" type="curve"/>
      <point x="783" y="70"/>
      <point x="845" y="-27"/>
      <point x="1019" y="-27" type="curve" smooth="yes"/>
      <point x="1328" y="-27"/>
      <point x="1427" y="229"/>
      <point x="1427" y="478" type="curve" smooth="yes"/>
      <point x="1427" y="679"/>
      <point x="1344" y="884"/>
      <point x="1185" y="1047" type="curve"/>
      <point x="972" y="1047" type="line"/>
      <point x="1137" y="901"/>
      <point x="1222" y="666"/>
      <point x="1222" y="468" type="curve" smooth="yes"/>
      <point x="1222" y="303"/>
      <point x="1174" y="141"/>
      <point x="1002" y="141" type="curve" smooth="yes"/>
      <point x="894" y="141"/>
      <point x="835" y="228"/>
      <point x="835" y="350" type="curve" smooth="yes"/>
      <point x="835" y="811" type="line"/>
      <point x="631" y="811" type="line"/>
      <point x="631" y="316" type="line" smooth="yes"/>
      <point x="631" y="225"/>
      <point x="564" y="144"/>
      <point x="466" y="144" type="curve" smooth="yes"/>
      <point x="315" y="144"/>
      <point x="250" y="276"/>
      <point x="250" y="479" type="curve" smooth="yes"/>
      <point x="250" y="691"/>
      <point x="324" y="844"/>
      <point x="490" y="1047" type="curve"/>
    </contour>
  </outline>
</glyph>
<glyph name="Djecyr" format="2">
  <advance width="1677"/>
  <unicode hex="0402"/>
  <outline>
    <contour>
      <point x="529" y="0" type="line"/>
      <point x="720" y="0" type="line"/>
      <point x="720" y="700" type="line"/>
      <point x="796" y="793"/>
      <point x="922" y="842"/>
      <point x="1048" y="842" type="curve" smooth="yes"/>
      <point x="1313" y="842"/>
      <point x="1377" y="690"/>
      <point x="1377" y="454" type="curve" smooth="yes"/>
      <point x="1377" y="318"/>
      <point x="1299" y="157"/>
      <point x="1138" y="157" type="curve" smooth="yes"/>
      <point x="1066" y="157"/>
      <point x="987" y="180"/>
      <point x="937" y="240" type="curve"/>
      <point x="827" y="111" type="line"/>
      <point x="909" y="25"/>
      <point x="1038" y="-18"/>
      <point x="1154" y="-18" type="curve" smooth="yes"/>
      <point x="1428" y="-18"/>
      <point x="1568" y="205"/>
      <point x="1568" y="460" type="curve" smooth="yes"/>
      <point x="1568" y="812"/>
      <point x="1415" y="1024"/>
      <point x="1048" y="1024" type="curve" smooth="yes"/>
      <point x="927" y="1024"/>
      <point x="818" y="987"/>
      <point x="720" y="912" type="curve"/>
      <point x="720" y="1286" type="line"/>
      <point x="1198" y="1286" type="line"/>
      <point x="1198" y="1448" type="line"/>
      <point x="49" y="1448" type="line"/>
      <point x="49" y="1286" type="line"/>
      <point x="529" y="1286" type="line"/>
    </contour>
  </outline>
</glyph>
<glyph name="Eukrcyr" format="2">
  <advance width="1454"/>
  <unicode hex="0404"/>
  <outline>
    <contour>
      <point x="1377" y="1074" type="line"/>
      <point x="1263" y="1332"/>
      <point x="1055" y="1468"/>
      <point x="775" y="1468" type="curve" smooth="yes"/>
      <point x="370" y="1468"/>
      <point x="110" y="1178"/>
      <point x="110" y="724" type="curve" smooth="yes"/>
      <point x="110" y="270"/>
      <point x="368" y="-20"/>
      <point x="773" y="-20" type="curve" smooth="yes"/>
      <point x="1053" y="-20"/>
      <point x="1261" y="114"/>
      <point x="1375" y="371" type="curve"/>
      <point x="1199" y="443" type="line"/>
      <point x="1144" y="256"/>
      <point x="996" y="159"/>
      <point x="771" y="159" type="curve" smooth="yes"/>
      <point x="502" y="159"/>
      <point x="327" y="339"/>
      <point x="303" y="637" type="curve"/>
      <point x="929" y="637" type="line"/>
      <point x="929" y="798" type="line"/>
      <point x="303" y="798" type="line"/>
      <point x="331" y="1113"/>
      <point x="501" y="1292"/>
      <point x="775" y="1292" type="curve" smooth="yes"/>
      <point x="990" y="1292"/>
      <point x="1126" y="1198"/>
      <point x="1200" y="1001" type="curve"/>
    </contour>
  </outline>
</glyph>
<glyph name="Iukrcyr" format="2">
  <advance width="601"/>
  <unicode hex="0406"/>
  <outline>
    <contour>
      <point x="395" y="0" type="line"/>
      <point x="395" y="1448" type="line"/>
      <point x="204" y="1448" type="line"/>
      <point x="204" y="0" type="line"/>
    </contour>
  </outline>
</glyph>
<glyph name="Njecyr" format="2">
  <advance width="2074"/>
  <unicode hex="040A"/>
  <outline>
    <contour>
      <point x="1523" y="0" type="line" smooth="yes"/>
      <point x="1781" y="0"/>
      <point x="1999" y="129"/>
      <point x="1999" y="408" type="curve" smooth="yes"/>
      <point x="1999" y="692"/>
      <point x="1774" y="809"/>
      <point x="1523" y="809" type="curve" smooth="yes"/>
      <point x="1293" y="809" type="line"/>
      <point x="1293" y="1446" type="line"/>
      <point x="1101" y="1446" type="line"/>
      <point x="1101" y="807" type="line"/>
      <point x="396" y="807" type="line"/>
      <point x="396" y="1446" type="line"/>
      <point x="206" y="1446" type="line"/>
      <point x="206" y="0" type="line"/>
      <point x="396" y="0" type="line"/>
      <point x="396" y="640" type="line"/>
      <point x="1101" y="640" type="line"/>
      <point x="1101" y="0" type="line"/>
    </contour>
    <contour>
      <point x="1523" y="174" type="curve" smooth="yes"/>
      <point x="1293" y="174" type="line"/>
      <point x="1293" y="637" type="line"/>
      <point x="1523" y="637" type="line" smooth="yes"/>
      <point x="1695" y="637"/>
      <point x="1811" y="570"/>
      <point x="1811" y="408" type="curve" smooth="yes"/>
      <point x="1811" y="247"/>
      <point x="1695" y="174"/>
    </contour>
  </outline>
</glyph>
<glyph name="Zecyr" format="2">
  <advance width="1141"/>
  <unicode hex="0417"/>
  <outline>
    <contour>
      <point x="75" y="208" type="line"/>
      <point x="163" y="42"/>
      <point x="350" y="-20"/>
      <point x="528" y="-20" type="curve" smooth="yes"/>
      <point x="794" y="-20"/>
      <point x="1030" y="118"/>
      <point x="1030" y="402" type="curve" smooth="yes"/>
      <point x="1030" y="616"/>
      <point x="913" y="753"/>
      <point x="747" y="792" type="curve"/>
      <point x="746" y="767" type="line"/>
      <point x="882" y="825"/>
      <point x="955" y="937"/>
      <point x="955" y="1090" type="curve" smooth="yes"/>
      <point x="955" y="1329"/>
      <point x="756" y="1468"/>
      <point x="530" y="1468" type="curve" smooth="yes"/>
      <point x="307" y="1468"/>
      <point x="113" y="1337"/>
      <point x="102" y="1102" type="curve"/>
      <point x="289" y="1102" type="line"/>
      <point x="297" y="1229"/>
      <point x="412" y="1300"/>
      <point x="532" y="1300" type="curve" smooth="yes"/>
      <point x="671" y="1300"/>
      <point x="778" y="1214"/>
      <point x="778" y="1070" type="curve" smooth="yes"/>
      <point x="778" y="909"/>
      <point x="649" y="850"/>
      <point x="507" y="850" type="curve" smooth="yes"/>
      <point x="368" y="850" type="line"/>
      <point x="368" y="685" type="line"/>
      <point x="532" y="685" type="line" smooth="yes"/>
      <point x="715" y="685"/>
      <point x="841" y="586"/>
      <point x="841" y="419" type="curve" smooth="yes"/>
      <point x="841" y="242"/>
      <point x="700" y="142"/>
      <point x="528" y="142" type="curve" smooth="yes"/>
      <point x="395" y="142"/>
      <point x="276" y="198"/>
      <point x="230" y="311" type="curve"/>
    </contour>
  </outline>
</glyph>
<glyph name="Pecyr" format="2">
  <advance width="1483"/>
  <unicode hex="041F"/>
  <outline>
    <contour>
      <point x="1278" y="0" type="line"/>
      <point x="1278" y="1446" type="line"/>
      <point x="204" y="1446" type="line"/>
      <point x="204" y="0" type="line"/>
      <point x="394" y="0" type="line"/>
      <point x="394" y="1278" type="line"/>
      <point x="1089" y="1278" type="line"/>
      <point x="1089" y="0" type="line"/>
    </contour>
  </outline>
</glyph>
<glyph name="becyr" format="2">
  <advance width="1194"/>
  <unicode hex="0431"/>
  <outline>
    <contour>
      <point x="599" y="-20" type="curve" smooth="yes"/>
      <point x="892" y="-20"/>
      <point x="1106" y="183"/>
      <point x="1106" y="487" type="curve" smooth="yes"/>
      <point x="1106" y="768"/>
      <point x="925" y="957"/>
      <point x="652" y="957" type="curve" smooth="yes"/>
      <point x="481" y="957"/>
      <point x="346" y="889"/>
      <point x="274" y="766" type="curve"/>
      <point x="265" y="766" type="line"/>
      <point x="280" y="991"/>
      <point x="324" y="1130"/>
      <point x="432" y="1203" type="curve" smooth="yes"/>
      <point x="571" y="1294"/>
      <point x="808" y="1277"/>
      <point x="991" y="1316" type="curve"/>
      <point x="991" y="1468" type="line"/>
      <point x="779" y="1416"/>
      <point x="515" y="1428"/>
      <point x="356" y="1341" type="curve" smooth="yes"/>
      <point x="196" y="1252"/>
      <point x="117" y="994"/>
      <point x="117" y="748" type="curve" smooth="yes"/>
      <point x="117" y="537" type="line" smooth="yes"/>
      <point x="117" y="184"/>
      <point x="302" y="-20"/>
    </contour>
    <contour>
      <point x="611" y="132" type="curve" smooth="yes"/>
      <point x="417" y="132"/>
      <point x="301" y="270"/>
      <point x="301" y="483" type="curve" smooth="yes"/>
      <point x="301" y="666"/>
      <point x="431" y="803"/>
      <point x="612" y="803" type="curve" smooth="yes"/>
      <point x="810" y="803"/>
      <point x="916" y="678"/>
      <point x="916" y="482" type="curve" smooth="yes"/>
      <point x="916" y="292"/>
      <point x="818" y="132"/>
    </contour>
  </outline>
</glyph>
<glyph name="icyr" format="2">
  <advance width="1212"/>
  <unicode hex="0438"/>
  <anchor x="612" y="1192" name="top"/>
  <outline>
    <contour>
      <point x="168" y="0" type="line"/>
      <point x="373" y="0" type="line"/>
      <point x="862" y="797" type="line"/>
      <point x="870" y="797" type="line"/>
      <point x="865" y="755"/>
      <point x="863" y="714"/>
      <point x="863" y="675" type="curve" smooth="yes"/>
      <point x="863" y="0" type="line"/>
      <point x="1044" y="0" type="line"/>
      <point x="1044" y="1064" type="line"/>
      <point x="840" y="1064" type="line"/>
      <point x="352" y="267" type="line"/>
      <point x="342" y="267" type="line"/>
      <point x="347" y="309"/>
      <point x="350" y="350"/>
      <point x="350" y="389" type="curve" smooth="yes"/>
      <point x="350" y="1064" type="line"/>
      <point x="168" y="1064" type="line"/>
    </contour>
  </outline>
</glyph>
<glyph name="kacyr" format="2">
  <advance width="1083"/>
  <unicode hex="043A"/>
  <anchor x="527" y="1192" name="top"/>
  <outline>
    <contour>
      <point x="164" y="0" type="line"/>
      <point x="346" y="0" type="line"/>
      <point x="346" y="479" type="line"/>
      <point x="536" y="479" type="line" smooth="yes"/>
      <point x="621" y="479"/>
      <point x="665" y="427"/>
      <point x="696" y="347" type="curve" smooth="yes"/>
      <point x="830" y="0" type="line"/>
      <point x="1051" y="0" type="line"/>
      <point x="874" y="420" type="line" smooth="yes"/>
      <point x="839" y="502"/>
      <point x="783" y="589"/>
      <point x="713" y="589" type="curve"/>
      <point x="988" y="1064" type="line"/>
      <point x="772" y="1064" type="line"/>
      <point x="526" y="623" type="line"/>
      <point x="346" y="623" type="line"/>
      <point x="346" y="1064" type="line"/>
      <point x="164" y="1064" type="line"/>
    </contour>
  </outline>
</glyph>
<glyph name="pecyr" format="2">
  <advance width="1212"/>
  <unicode hex="043F"/>
  <outline>
    <contour>
      <point x="1044" y="0" type="line"/>
      <point x="1044" y="1064" type="line"/>
      <point x="168" y="1064" type="line"/>
      <point x="168" y="0" type="line"/>
      <point x="350" y="0" type="line"/>
      <point x="350" y="925" type="line"/>
      <point x="863" y="925" type="line"/>
      <point x="863" y="0" type="line"/>
    </contour>
  </outline>
</glyph>
<glyph name="yucyr" format="2">
  <advance width="1529"/>
  <unicode hex="044E"/>
  <outline>
    <contour>
      <point x="156" y="0" type="line"/>
      <point x="339" y="0" type="line"/>
      <point x="339" y="520" type="line"/>
      <point x="511" y="520" type="line"/>
      <point x="511" y="659" type="line"/>
      <point x="339" y="659" type="line"/>
      <point x="339" y="1064" type="line"/>
      <point x="156" y="1064" type="line"/>
    </contour>
    <contour>
      <point x="957" y="-20" type="curve" smooth="yes"/>
      <point x="1268" y="-20"/>
      <point x="1473" y="197"/>
      <point x="1473" y="527" type="curve" smooth="yes"/>
      <point x="1473" y="856"/>
      <point x="1268" y="1077"/>
      <point x="962" y="1077" type="curve" smooth="yes"/>
      <point x="651" y="1077"/>
      <point x="444" y="860"/>
      <point x="444" y="535" type="curve" smooth="yes"/>
      <point x="444" y="201"/>
      <point x="648" y="-20"/>
    </contour>
    <contour>
      <point x="962" y="138" type="curve" smooth="yes"/>
      <point x="765" y="138"/>
      <point x="649" y="283"/>
      <point x="649" y="528" type="curve" smooth="yes"/>
      <point x="649" y="773"/>
      <point x="766" y="919"/>
      <point x="962" y="919" type="curve" smooth="yes"/>
      <point x="1154" y="919"/>
      <point x="1273" y="770"/>
      <point x="1273" y="528" type="curve" smooth="yes"/>
      <point x="1273" y="284"/>
      <point x="1156" y="138"/>
    </contour>
  </outline>
</glyph>
<glyph name="njecyr" format="2">
  <advance width="1728"/>
  <unicode hex="045A"/>
  <outline>
    <contour>
      <point x="1233" y="0" type="line" smooth="yes"/>
      <point x="1465" y="0"/>
      <point x="1661" y="64"/>
      <point x="1661" y="332" type="curve" smooth="yes"/>
      <point x="1661" y="621"/>
      <point x="1471" y="670"/>
      <point x="1217" y="670" type="curve" smooth="yes"/>
      <point x="1043" y="670" type="line"/>
      <point x="1043" y="1064" type="line"/>
      <point x="862" y="1064" type="line"/>
      <point x="862" y="653" type="line"/>
      <point x="350" y="653" type="line"/>
      <point x="350" y="1064" type="line"/>
      <point x="167" y="1064" type="line"/>
      <point x="167" y="0" type="line"/>
      <point x="350" y="0" type="line"/>
      <point x="350" y="513" type="line"/>
      <point x="862" y="513" type="line"/>
      <point x="862" y="0" type="line"/>
    </contour>
    <contour>
      <point x="1231" y="151" type="curve" smooth="yes"/>
      <point x="1044" y="151" type="line"/>
      <point x="1044" y="518" type="line"/>
      <point x="1241" y="518" type="line" smooth="yes"/>
      <point x="1392" y="518"/>
      <point x="1467" y="479"/>
      <point x="1467" y="336" type="curve" smooth="yes"/>
      <point x="1467" y="180"/>
      <point x="1367" y="151"/>
    </contour>
  </outline>
</glyph>
<glyph name="eiotifiedcyr" format="2">
  <advance width="1432"/>
  <unicode hex="0465"/>
  <outline>
    <contour>
      <point x="494" y="524" type="curve" smooth="yes"/>
      <point x="494" y="199"/>
      <point x="683" y="-20"/>
      <point x="965" y="-20" type="curve" smooth="yes"/>
      <point x="1167" y="-20"/>
      <point x="1310" y="79"/>
      <point x="1378" y="268" type="curve"/>
      <point x="1212" y="338" type="line"/>
      <point x="1178" y="217"/>
      <point x="1080" y="140"/>
      <point x="962" y="140" type="curve" smooth="yes"/>
      <point x="790" y="140"/>
      <point x="678" y="295"/>
      <point x="678" y="534" type="curve" smooth="yes"/>
      <point x="678" y="766"/>
      <point x="791" y="920"/>
      <point x="962" y="920" type="curve" smooth="yes"/>
      <point x="1084" y="920"/>
      <point x="1175" y="847"/>
      <point x="1212" y="722" type="curve"/>
      <point x="1391" y="798" type="line"/>
      <point x="1310" y="982"/>
      <point x="1162" y="1081"/>
      <point x="966" y="1081" type="curve" smooth="yes"/>
      <point x="684" y="1081"/>
      <point x="494" y="856"/>
    </contour>
    <contour>
      <point x="156" y="0" type="line"/>
      <point x="339" y="0" type="line"/>
      <point x="339" y="459" type="line"/>
      <point x="561" y="459" type="line"/>
      <point x="561" y="594" type="line"/>
      <point x="339" y="594" type="line"/>
      <point x="339" y="1064" type="line"/>
      <point x="156" y="1064" type="line"/>
    </contour>
    <contour>
      <point x="619" y="459" type="line"/>
      <point x="1095" y="459" type="line"/>
      <point x="1095" y="594" type="line"/>
      <point x="619" y="594" type="line"/>
    </contour>
  </outline>
</glyph>
<glyph name="yusbigiotifiedcyr" format="2">
  <advance width="1693"/>
  <unicode hex="046D"/>
  <outline>
    <contour>
      <point x="155" y="0" type="line"/>
      <point x="338" y="0" type="line"/>
      <point x="338" y="489" type="line"/>
      <point x="789" y="489" type="line"/>
      <point x="842" y="625" type="line"/>
      <point x="338" y="625" type="line"/>
      <point x="338" y="1064" type="line"/>
      <point x="155" y="1064" type="line"/>
    </contour>
    <contour>
      <point x="425" y="0" type="line"/>
      <point x="647" y="0" type="line"/>
      <point x="766" y="352" type="line" smooth="yes"/>
      <point x="802" y="458"/>
      <point x="842" y="492"/>
      <point x="959" y="495" type="curve"/>
      <point x="959" y="0" type="line"/>
      <point x="1129" y="0" type="line"/>
      <point x="1129" y="495" type="line"/>
      <point x="1227" y="492"/>
      <point x="1285" y="464"/>
      <point x="1317" y="371" type="curve" smooth="yes"/>
      <point x="1442" y="0" type="line"/>
      <point x="1663" y="0" type="line"/>
      <point x="1498" y="455" type="line" smooth="yes"/>
      <point x="1459" y="563"/>
      <point x="1375" y="625"/>
      <point x="1271" y="625" type="curve"/>
      <point x="1497" y="924" type="line"/>
      <point x="1497" y="1064" type="line"/>
      <point x="591" y="1064" type="line"/>
      <point x="591" y="924" type="line"/>
      <point x="819" y="625" type="line"/>
      <point x="711" y="625"/>
      <point x="633" y="569"/>
      <point x="591" y="455" type="curve" smooth="yes"/>
    </contour>
    <contour>
      <point x="1043" y="631" type="line"/>
      <point x="829" y="925" type="line"/>
      <point x="1263" y="925" type="line"/>
    </contour>
  </outline>
</glyph>
<glyph name="Geupcyr" format="2">
  <advance width="1097"/>
  <unicode hex="0490"/>
  <outline>
    <contour>
      <point x="398" y="0" type="line"/>
      <point x="398" y="1278" type="line"/>
      <point x="1044" y="1278" type="line"/>
      <point x="1044" y="1760" type="line"/>
      <point x="856" y="1760" type="line"/>
      <point x="856" y="1446" type="line"/>
      <point x="208" y="1446" type="line"/>
      <point x="208" y="0" type="line"/>
    </contour>
  </outline>
</glyph>
<glyph name="Katailcyr" format="2">
  <advance width="1330"/>
  <unicode hex="049A"/>
  <outline>
    <contour>
      <point x="1333" y="-245" type="line"/>
      <point x="1333" y="170" type="line"/>
      <point x="1153" y="170" type="line"/>
      <point x="1153" y="-245" type="line"/>
    </contour>
    <contour>
      <point x="191" y="0" type="line"/>
      <point x="381" y="0" type="line"/>
      <point x="381" y="709" type="line"/>
      <point x="631" y="709" type="line" smooth="yes"/>
      <point x="724" y="709"/>
      <point x="793" y="633"/>
      <point x="823" y="548" type="curve" smooth="yes"/>
      <point x="1018" y="0" type="line"/>
      <point x="1250" y="0" type="line"/>
      <point x="996" y="641" type="line" smooth="yes"/>
      <point x="943" y="769"/>
      <point x="853" y="840"/>
      <point x="748" y="840" type="curve"/>
      <point x="1172" y="1448" type="line"/>
      <point x="926" y="1448" type="line"/>
      <point x="549" y="878" type="line"/>
      <point x="381" y="878" type="line"/>
      <point x="381" y="1448" type="line"/>
      <point x="191" y="1448" type="line"/>
    </contour>
  </outline>
</glyph>
<glyph name="Ustraightstrokecyr" format="2">
  <advance width="1353"/>
  <unicode hex="04B0"/>
  <outline>
    <contour>
      <point x="772" y="0" type="line"/>
      <point x="772" y="311" type="line"/>
      <point x="998" y="311" type="line"/>
      <point x="998" y="470" type="line"/>
      <point x="772" y="470" type="line"/>
      <point x="772" y="565" type="line"/>
      <point x="1312" y="1447" type="line"/>
      <point x="1085" y="1447" type="line"/>
      <point x="674" y="755" type="line"/>
      <point x="264" y="1447" type="line"/>
      <point x="38" y="1447" type="line"/>
      <point x="580" y="565" type="line"/>
      <point x="580" y="470" type="line"/>
      <point x="353" y="470" type="line"/>
      <point x="353" y="311" type="line"/>
      <point x="580" y="311" type="line"/>
      <point x="580" y="0" type="line"/>
    </contour>
  </outline>
</glyph>
<glyph name="palochkacyr" format="2">
  <advance width="489"/>
  <unicode hex="04CF"/>
  <outline>
    <contour>
      <point x="347" y="0" type="line"/>
      <point x="347" y="1446" type="line"/>
      <point x="166" y="1446" type="line"/>
      <point x="166" y="0" type="line"/>
    </contour>
  </outline>
</glyph>
<glyph name="Germandbls" format="2">
  <advance width="1392"/>
  <unicode hex="1E9E"/>
  <outline>
    <contour>
      <point x="972" y="-20" type="curve" smooth="yes" name=".dv01"/>
      <point x="1163" y="-20"/>
      <point x="1360" y="81"/>
      <point x="1360" y="294" type="curve" smooth="yes" name=".dh06"/>
      <point x="1360" y="686"/>
      <point x="803" y="569"/>
      <point x="803" y="759" type="curve" smooth="yes" name=".dh04"/>
      <point x="803" y="795"/>
      <point x="820" y="820"/>
      <point x="844" y="849" type="curve" smooth="yes"/>
      <point x="1219" y="1301" type="line" name=".sh01"/>
      <point x="1219" y="1448" type="line"/>
      <point x="702" y="1448" type="line" smooth="yes" name=".dv04"/>
      <point x="336" y="1448"/>
      <point x="209" y="1230"/>
      <point x="209" y="894" type="curve" smooth="yes" name=".dh01"/>
      <point x="209" y="0" type="line"/>
      <point x="389" y="0" type="line"/>
      <point x="389" y="894" type="line" smooth="yes" name=".dh02"/>
      <point x="389" y="1122"/>
      <point x="469" y="1273"/>
      <point x="703" y="1273" type="curve" smooth="yes" name=".dv03"/>
      <point x="977" y="1273" type="line" name=".ih01"/>
      <point x="693" y="919" type="line" smooth="yes"/>
      <point x="651" y="868"/>
      <point x="610" y="809"/>
      <point x="610" y="743" type="curve" smooth="yes" name=".dh03"/>
      <point x="610" y="405"/>
      <point x="1159" y="557"/>
      <point x="1159" y="279" type="curve" smooth="yes" name=".dh05"/>
      <point x="1159" y="187"/>
      <point x="1071" y="144"/>
      <point x="980" y="144" type="curve" smooth="yes" name=".dv02"/>
      <point x="845" y="144"/>
      <point x="749" y="214"/>
      <point x="702" y="336" type="curve"/>
      <point x="544" y="256" type="line"/>
      <point x="603" y="83"/>
      <point x="774" y="-20"/>
    </contour>
  </outline>
</glyph>
<glyph name="perthousand" format="2">
  <advance width="2818"/>
  <unicode hex="2030"/>
  <outline>
    <contour>
      <point x="315" y="-5" type="line"/>
      <point x="473" y="-5" type="line"/>
      <point x="1256" y="1456" type="line"/>
      <point x="1098" y="1456" type="line"/>
    </contour>
    <contour>
      <point x="372" y="811" type="curve" smooth="yes"/>
      <point x="523" y="811"/>
      <point x="631" y="946"/>
      <point x="631" y="1137" type="curve" smooth="yes"/>
      <point x="631" y="1330"/>
      <point x="519" y="1468"/>
      <point x="366" y="1468" type="curve" smooth="yes"/>
      <point x="211" y="1468"/>
      <point x="107" y="1335"/>
      <point x="107" y="1138" type="curve" smooth="yes"/>
      <point x="107" y="944"/>
      <point x="215" y="811"/>
    </contour>
    <contour>
      <point x="369" y="934" type="curve" smooth="yes"/>
      <point x="290" y="934"/>
      <point x="236" y="1017"/>
      <point x="236" y="1138" type="curve" smooth="yes"/>
      <point x="236" y="1257"/>
      <point x="290" y="1342"/>
      <point x="366" y="1342" type="curve" smooth="yes"/>
      <point x="441" y="1342"/>
      <point x="497" y="1256"/>
      <point x="497" y="1139" type="curve" smooth="yes"/>
      <point x="497" y="1022"/>
      <point x="442" y="934"/>
    </contour>
    <contour>
      <point x="1220" y="-20" type="curve" smooth="yes"/>
      <point x="1371" y="-20"/>
      <point x="1479" y="115"/>
      <point x="1479" y="306" type="curve" smooth="yes"/>
      <point x="1479" y="499"/>
      <point x="1367" y="637"/>
      <point x="1214" y="637" type="curve" smooth="yes"/>
      <point x="1059" y="637"/>
      <point x="955" y="504"/>
      <point x="955" y="307" type="curve" smooth="yes"/>
      <point x="955" y="113"/>
      <point x="1063" y="-20"/>
    </contour>
    <contour>
      <point x="1217" y="103" type="curve" smooth="yes"/>
      <point x="1138" y="103"/>
      <point x="1084" y="186"/>
      <point x="1084" y="307" type="curve" smooth="yes"/>
      <point x="1084" y="426"/>
      <point x="1138" y="511"/>
      <point x="1214" y="511" type="curve" smooth="yes"/>
      <point x="1289" y="511"/>
      <point x="1345" y="425"/>
      <point x="1345" y="308" type="curve" smooth="yes"/>
      <point x="1345" y="191"/>
      <point x="1290" y="103"/>
    </contour>
    <contour>
      <point x="1844" y="-20" type="curve" smooth="yes"/>
      <point x="1995" y="-20"/>
      <point x="2103" y="115"/>
      <point x="2103" y="306" type="curve" smooth="yes"/>
      <point x="2103" y="499"/>
      <point x="1991" y="637"/>
      <point x="1838" y="637" type="curve" smooth="yes"/>
      <point x="1683" y="637"/>
      <point x="1579" y="504"/>
      <point x="1579" y="307" type="curve" smooth="yes"/>
      <point x="1579" y="113"/>
      <point x="1687" y="-20"/>
    </contour>
    <contour>
      <point x="1841" y="103" type="curve" smooth="yes"/>
      <point x="1762" y="103"/>
      <point x="1708" y="186"/>
      <point x="1708" y="307" type="curve" smooth="yes"/>
      <point x="1708" y="426"/>
      <point x="1762" y="511"/>
      <point x="1838" y="511" type="curve" smooth="yes"/>
      <point x="1913" y="511"/>
      <point x="1969" y="425"/>
      <point x="1969" y="308" type="curve" smooth="yes"/>
      <point x="1969" y="191"/>
      <point x="1914" y="103"/>
    </contour>
    <contour>
      <point x="2453" y="-20" type="curve" smooth="yes"/>
      <point x="2604" y="-20"/>
      <point x="2712" y="115"/>
      <point x="2712" y="306" type="curve" smooth="yes"/>
      <point x="2712" y="499"/>
      <point x="2600" y="637"/>
      <point x="2447" y="637" type="curve" smooth="yes"/>
      <point x="2292" y="637"/>
      <point x="2188" y="504"/>
      <point x="2188" y="307" type="curve" smooth="yes"/>
      <point x="2188" y="113"/>
      <point x="2296" y="-20"/>
    </contour>
    <contour>
      <point x="2450" y="103" type="curve" smooth="yes"/>
      <point x="2371" y="103"/>
      <point x="2317" y="186"/>
      <point x="2317" y="307" type="curve" smooth="yes"/>
      <point x="2317" y="426"/>
      <point x="2371" y="511"/>
      <point x="2447" y="511" type="curve" smooth="yes"/>
      <point x="2522" y="511"/>
      <point x="2578" y="425"/>
      <point x="2578" y="308" type="curve" smooth="yes"/>
      <point x="2578" y="191"/>
      <point x="2523" y="103"/>
    </contour>
  </outline>
</glyph>
<glyph name="zero.superior" format="2">
  <advance width="895"/>
  <unicode hex="2070"/>
  <outline>
    <contour>
      <point x="448" y="890" type="curve" smooth="yes"/>
      <point x="710" y="890"/>
      <point x="821" y="1167"/>
      <point x="821" y="1392" type="curve" smooth="yes"/>
      <point x="821" y="1621"/>
      <point x="707" y="1900"/>
      <point x="439" y="1900" type="curve" smooth="yes"/>
      <point x="168" y="1900"/>
      <point x="65" y="1628"/>
      <point x="65" y="1394" type="curve" smooth="yes"/>
      <point x="65" y="1158"/>
      <point x="174" y="890"/>
    </contour>
    <contour>
      <point x="444" y="1021" type="curve" smooth="yes"/>
      <point x="256" y="1021"/>
      <point x="204" y="1244"/>
      <point x="204" y="1394" type="curve" smooth="yes"/>
      <point x="204" y="1539"/>
      <point x="256" y="1764"/>
      <point x="439" y="1764" type="curve" smooth="yes"/>
      <point x="624" y="1764"/>
      <point x="673" y="1541"/>
      <point x="673" y="1395" type="curve" smooth="yes"/>
      <point x="673" y="1255"/>
      <point x="623" y="1021"/>
    </contour>
  </outline>
</glyph>
<glyph name="nine.superior" format="2">
  <advance width="885"/>
  <unicode hex="2079"/>
  <outline>
    <contour>
      <point x="429" y="919" type="line"/>
      <point x="725" y="1406" type="line" smooth="yes"/>
      <point x="758" y="1461"/>
      <point x="774" y="1516"/>
      <point x="774" y="1575" type="curve" smooth="yes"/>
      <point x="774" y="1755"/>
      <point x="621" y="1900"/>
      <point x="432" y="1900" type="curve" smooth="yes"/>
      <point x="241" y="1900"/>
      <point x="89" y="1753"/>
      <point x="89" y="1567" type="curve" smooth="yes"/>
      <point x="89" y="1388"/>
      <point x="226" y="1256"/>
      <point x="411" y="1256" type="curve" smooth="yes"/>
      <point x="456" y="1256"/>
      <point x="497" y="1261"/>
      <point x="535" y="1272" type="curve"/>
      <point x="520" y="1292" type="line"/>
      <point x="288" y="919" type="line"/>
    </contour>
    <contour>
      <point x="431" y="1371" type="curve" smooth="yes"/>
      <point x="316" y="1371"/>
      <point x="226" y="1457"/>
      <point x="226" y="1568" type="curve" smooth="yes"/>
      <point x="226" y="1678"/>
      <point x="319" y="1770"/>
      <point x="431" y="1770" type="curve" smooth="yes"/>
      <point x="544" y="1770"/>
      <point x="637" y="1679"/>
      <point x="637" y="1568" type="curve" smooth="yes"/>
      <point x="637" y="1456"/>
      <point x="548" y="1371"/>
    </contour>
  </outline>
</glyph>
<glyph name="two.inferior" format="2">
  <advance width="873"/>
  <unicode hex="2082"/>
  <outline>
    <contour>
      <point x="71" y="-468" type="line"/>
      <point x="785" y="-468" type="line" name=".dv01"/>
      <point x="785" y="-345" type="line" name=".dv02"/>
      <point x="274" y="-345" type="line" name=".sh03"/>
      <point x="534" y="-187"/>
      <point x="738" y="19"/>
      <point x="738" y="225" type="curve" smooth="yes" name=".sh04"/>
      <point x="738" y="385"/>
      <point x="617" y="500"/>
      <point x="432" y="500" type="curve" smooth="yes" name=".dv04"/>
      <point x="249" y="500"/>
      <point x="119" y="366"/>
      <point x="113" y="176" type="curve" name=".sh01"/>
      <point x="250" y="166" type="line" name=".sh02"/>
      <point x="254" y="289"/>
      <point x="319" y="373"/>
      <point x="435" y="373" type="curve" smooth="yes" name=".dv03"/>
      <point x="539" y="373"/>
      <point x="594" y="308"/>
      <point x="594" y="206" type="curve" smooth="yes" name=".ah01"/>
      <point x="594" y="39"/>
      <point x="316" y="-223"/>
      <point x="71" y="-357" type="curve"/>
    </contour>
  </outline>
</glyph>
<glyph name="three.inferior" format="2">
  <advance width="867"/>
  <unicode hex="2083"/>
  <outline>
    <contour>
      <point x="429" y="-508" type="curve" smooth="yes" name=".dv01"/>
      <point x="629" y="-508"/>
      <point x="789" y="-405"/>
      <point x="789" y="-211" type="curve" smooth="yes" name=".sh01"/>
      <point x="789" y="-82"/>
      <point x="718" y="8"/>
      <point x="586" y="47" type="curve" name=".iv01"/>
      <point x="590" y="18" type="line"/>
      <point x="683" y="66"/>
      <point x="733" y="144"/>
      <point x="733" y="242" type="curve" smooth="yes" name=".dh04"/>
      <point x="733" y="404"/>
      <point x="588" y="500"/>
      <point x="425" y="500" type="curve" smooth="yes" name=".dv04"/>
      <point x="251" y="500"/>
      <point x="117" y="395"/>
      <point x="117" y="229" type="curve" name=".ih02"/>
      <point x="247" y="219" type="line" name=".sh02"/>
      <point x="248" y="311"/>
      <point x="323" y="371"/>
      <point x="427" y="371" type="curve" smooth="yes" name=".dv03"/>
      <point x="519" y="371"/>
      <point x="599" y="316"/>
      <point x="599" y="224" type="curve" smooth="yes" name=".dh03"/>
      <point x="599" y="141"/>
      <point x="547" y="87"/>
      <point x="448" y="87" type="curve" smooth="yes"/>
      <point x="361" y="87" type="line" name=".dv06"/>
      <point x="361" y="-36" type="line" name=".dv05"/>
      <point x="438" y="-36" type="line" smooth="yes"/>
      <point x="576" y="-36"/>
      <point x="657" y="-98"/>
      <point x="657" y="-204" type="curve" smooth="yes" name=".ih01"/>
      <point x="657" y="-312"/>
      <point x="557" y="-382"/>
      <point x="430" y="-382" type="curve" smooth="yes" name=".dv02"/>
      <point x="307" y="-382"/>
      <point x="198" y="-314"/>
      <point x="198" y="-196" type="curve" name=".dh02"/>
      <point x="67" y="-205" type="line" name=".dh01"/>
      <point x="67" y="-402"/>
      <point x="224" y="-508"/>
    </contour>
  </outline>
</glyph>
<glyph name="six.inferior" format="2">
  <advance width="885"/>
  <unicode hex="2086"/>
  <outline>
    <contour>
      <point x="434" y="-480" type="curve" smooth="yes"/>
      <point x="621" y="-480"/>
      <point x="777" y="-338"/>
      <point x="777" y="-149" type="curve" smooth="yes"/>
      <point x="777" y="35"/>
      <point x="640" y="161"/>
      <point x="455" y="161" type="curve" smooth="yes"/>
      <point x="420" y="161"/>
      <point x="376" y="157"/>
      <point x="336" y="143" type="curve"/>
      <point x="351" y="125" type="line"/>
      <point x="581" y="500" type="line"/>
      <point x="438" y="500" type="line"/>
      <point x="143" y="14" type="line" smooth="yes"/>
      <point x="110" y="-40"/>
      <point x="92" y="-94"/>
      <point x="92" y="-155" type="curve" smooth="yes"/>
      <point x="92" y="-342"/>
      <point x="253" y="-480"/>
    </contour>
    <contour>
      <point x="435" y="-350" type="curve" smooth="yes"/>
      <point x="324" y="-350"/>
      <point x="229" y="-261"/>
      <point x="229" y="-149" type="curve" smooth="yes"/>
      <point x="229" y="-33"/>
      <point x="321" y="49"/>
      <point x="435" y="49" type="curve" smooth="yes"/>
      <point x="548" y="49"/>
      <point x="641" y="-35"/>
      <point x="641" y="-149" type="curve" smooth="yes"/>
      <point x="641" y="-261"/>
      <point x="546" y="-350"/>
    </contour>
  </outline>
</glyph>
<glyph name="eight.inferior" format="2">
  <advance width="900"/>
  <unicode hex="2088"/>
  <outline>
    <contour>
      <point x="447" y="-507" type="curve" smooth="yes"/>
      <point x="628" y="-507"/>
      <point x="807" y="-421"/>
      <point x="807" y="-219" type="curve" smooth="yes"/>
      <point x="807" y="-103"/>
      <point x="746" y="-14"/>
      <point x="634" y="36" type="curve"/>
      <point x="711" y="82"/>
      <point x="754" y="155"/>
      <point x="754" y="244" type="curve" smooth="yes"/>
      <point x="754" y="413"/>
      <point x="600" y="500"/>
      <point x="449" y="500" type="curve" smooth="yes"/>
      <point x="294" y="500"/>
      <point x="140" y="414"/>
      <point x="140" y="244" type="curve" smooth="yes"/>
      <point x="140" y="154"/>
      <point x="183" y="83"/>
      <point x="262" y="36" type="curve"/>
      <point x="153" y="-13"/>
      <point x="87" y="-96"/>
      <point x="87" y="-220" type="curve" smooth="yes"/>
      <point x="87" y="-421"/>
      <point x="271" y="-507"/>
    </contour>
    <contour>
      <point x="452" y="83" type="curve" smooth="yes"/>
      <point x="349" y="83"/>
      <point x="279" y="141"/>
      <point x="279" y="237" type="curve" smooth="yes"/>
      <point x="279" y="332"/>
      <point x="365" y="381"/>
      <point x="451" y="381" type="curve" smooth="yes"/>
      <point x="541" y="381"/>
      <point x="621" y="329"/>
      <point x="621" y="231" type="curve" smooth="yes"/>
      <point x="621" y="140"/>
      <point x="546" y="83"/>
    </contour>
    <contour>
      <point x="447" y="-389" type="curve" smooth="yes"/>
      <point x="328" y="-389"/>
      <point x="224" y="-327"/>
      <point x="224" y="-209" type="curve" smooth="yes"/>
      <point x="224" y="-91"/>
      <point x="328" y="-30"/>
      <point x="447" y="-30" type="curve" smooth="yes"/>
      <point x="556" y="-30"/>
      <point x="666" y="-88"/>
      <point x="666" y="-210" type="curve" smooth="yes"/>
      <point x="666" y="-326"/>
      <point x="565" y="-389"/>
    </contour>
  </outline>
</glyph>
<glyph name="dong" format="2">
  <advance width="1264"/>
  <unicode hex="20AB"/>
  <outline>
    <contour>
      <point x="557" y="1350" type="line"/>
      <point x="557" y="1234" type="line"/>
      <point x="1135" y="1234" type="line"/>
      <point x="1135" y="1350" type="line"/>
    </contour>
    <contour>
      <point x="539" y="176" type="curve" smooth="yes"/>
      <point x="658" y="176"/>
      <point x="753" y="215"/>
      <point x="823" y="313" type="curve"/>
      <point x="828" y="193" type="line"/>
      <point x="977" y="193" type="line"/>
      <point x="977" y="1448" type="line"/>
      <point x="819" y="1448" type="line"/>
      <point x="819" y="1001" type="line"/>
      <point x="752" y="1092"/>
      <point x="653" y="1133"/>
      <point x="541" y="1133" type="curve" smooth="yes"/>
      <point x="281" y="1133"/>
      <point x="167" y="882"/>
      <point x="167" y="654" type="curve" smooth="yes"/>
      <point x="167" y="428"/>
      <point x="278" y="176"/>
    </contour>
    <contour>
      <point x="580" y="318" type="curve" smooth="yes"/>
      <point x="394" y="318"/>
      <point x="326" y="486"/>
      <point x="326" y="654" type="curve" smooth="yes"/>
      <point x="326" y="816"/>
      <point x="393" y="990"/>
      <point x="580" y="990" type="curve" smooth="yes"/>
      <point x="770" y="990"/>
      <point x="833" y="816"/>
      <point x="833" y="654" type="curve" smooth="yes"/>
      <point x="833" y="485"/>
      <point x="766" y="318"/>
    </contour>
    <contour>
      <point x="968" y="0" type="line"/>
      <point x="968" y="118" type="line"/>
      <point x="259" y="118" type="line"/>
      <point x="259" y="0" type="line"/>
    </contour>
  </outline>
</glyph>
<glyph name="Euro" format="2">
  <advance width="1229"/>
  <unicode hex="20AC"/>
  <outline>
    <contour>
      <point x="762" y="-20" type="curve" smooth="yes"/>
      <point x="909" y="-20"/>
      <point x="1039" y="41"/>
      <point x="1132" y="161" type="curve"/>
      <point x="1018" y="281" type="line"/>
      <point x="960" y="190"/>
      <point x="877" y="146"/>
      <point x="762" y="146" type="curve" smooth="yes"/>
      <point x="569" y="146"/>
      <point x="458" y="293"/>
      <point x="411" y="479" type="curve"/>
      <point x="888" y="479" type="line"/>
      <point x="951" y="626" type="line"/>
      <point x="385" y="626" type="line"/>
      <point x="382" y="665"/>
      <point x="381" y="701"/>
      <point x="381" y="734" type="curve" smooth="yes"/>
      <point x="381" y="763"/>
      <point x="382" y="795"/>
      <point x="385" y="833" type="curve"/>
      <point x="888" y="833" type="line"/>
      <point x="951" y="980" type="line"/>
      <point x="411" y="980" type="line"/>
      <point x="458" y="1155"/>
      <point x="569" y="1302"/>
      <point x="758" y="1302" type="curve" smooth="yes"/>
      <point x="871" y="1302"/>
      <point x="959" y="1259"/>
      <point x="1022" y="1168" type="curve"/>
      <point x="1145" y="1269" type="line"/>
      <point x="1051" y="1396"/>
      <point x="923" y="1468"/>
      <point x="760" y="1468" type="curve" smooth="yes"/>
      <point x="462" y="1468"/>
      <point x="306" y="1247"/>
      <point x="250" y="980" type="curve"/>
      <point x="159" y="980" type="line"/>
      <point x="96" y="835" type="line"/>
      <point x="230" y="835" type="line"/>
      <point x="226" y="807"/>
      <point x="224" y="764"/>
      <point x="224" y="735" type="curve" smooth="yes"/>
      <point x="224" y="692"/>
      <point x="225" y="641"/>
      <point x="227" y="625" type="curve"/>
      <point x="159" y="625" type="line"/>
      <point x="96" y="479" type="line"/>
      <point x="247" y="479" type="line"/>
      <point x="300" y="207"/>
      <point x="460" y="-20"/>
    </contour>
  </outline>
</glyph>
<glyph name="austral" format="2">
  <advance width="1229"/>
  <unicode hex="20B3"/>
  <outline>
    <contour>
      <point x="1249" y="0" type="line"/>
      <point x="1130" y="314" type="line"/>
      <point x="1231" y="314" type="line"/>
      <point x="1231" y="442" type="line"/>
      <point x="1081" y="442" type="line"/>
      <point x="998" y="661" type="line"/>
      <point x="1231" y="661" type="line"/>
      <point x="1231" y="789" type="line"/>
      <point x="949" y="789" type="line"/>
      <point x="698" y="1447" type="line"/>
      <point x="553" y="1447" type="line"/>
      <point x="301" y="789" type="line"/>
      <point x="16" y="789" type="line"/>
      <point x="16" y="661" type="line"/>
      <point x="252" y="661" type="line"/>
      <point x="168" y="442" type="line"/>
      <point x="16" y="442" type="line"/>
      <point x="16" y="314" type="line"/>
      <point x="119" y="314" type="line"/>
      <point x="-2" y="0" type="line"/>
      <point x="206" y="0" type="line"/>
      <point x="318" y="314" type="line"/>
      <point x="933" y="314" type="line"/>
      <point x="1044" y="0" type="line"/>
    </contour>
    <contour>
      <point x="775" y="789" type="line"/>
      <point x="474" y="789" type="line"/>
      <point x="625" y="1218" type="line"/>
    </contour>
    <contour>
      <point x="897" y="442" type="line"/>
      <point x="354" y="442" type="line"/>
      <point x="429" y="661" type="line"/>
      <point x="821" y="661" type="line"/>
    </contour>
  </outline>
</glyph>
<glyph name="hryvnia" format="2">
  <advance width="1229"/>
  <unicode hex="20B4"/>
  <outline>
    <contour>
      <point x="604" y="-16" type="curve" smooth="yes"/>
      <point x="854" y="-16"/>
      <point x="1078" y="121"/>
      <point x="1119" y="381" type="curve"/>
      <point x="937" y="431" type="line"/>
      <point x="911" y="252"/>
      <point x="779" y="157"/>
      <point x="602" y="157" type="curve" smooth="yes"/>
      <point x="435" y="157"/>
      <point x="326" y="237"/>
      <point x="326" y="414" type="curve" smooth="yes"/>
      <point x="326" y="473"/>
      <point x="345" y="525"/>
      <point x="382" y="569" type="curve"/>
      <point x="983" y="569" type="line"/>
      <point x="983" y="681" type="line"/>
      <point x="565" y="681" type="line"/>
      <point x="901" y="802"/>
      <point x="1023" y="911"/>
      <point x="1023" y="1092" type="curve" smooth="yes"/>
      <point x="1023" y="1323"/>
      <point x="837" y="1468"/>
      <point x="613" y="1468" type="curve" smooth="yes"/>
      <point x="433" y="1468"/>
      <point x="293" y="1390"/>
      <point x="200" y="1235" type="curve"/>
      <point x="350" y="1139" type="line"/>
      <point x="406" y="1246"/>
      <point x="506" y="1302"/>
      <point x="616" y="1302" type="curve" smooth="yes"/>
      <point x="730" y="1302"/>
      <point x="834" y="1227"/>
      <point x="834" y="1106" type="curve" smooth="yes"/>
      <point x="834" y="1054"/>
      <point x="816" y="1011"/>
      <point x="781" y="975" type="curve"/>
      <point x="232" y="975" type="line"/>
      <point x="232" y="863" type="line"/>
      <point x="607" y="863" type="line"/>
      <point x="324" y="751"/>
      <point x="137" y="640"/>
      <point x="137" y="407" type="curve" smooth="yes"/>
      <point x="137" y="140"/>
      <point x="347" y="-16"/>
    </contour>
  </outline>
</glyph>
<glyph name="partialdiff" format="2">
  <advance width="1339"/>
  <unicode hex="2202"/>
  <outline>
    <contour>
      <point x="578" y="-11" type="curve" smooth="yes"/>
      <point x="1004" y="-11"/>
      <point x="1170" y="392"/>
      <point x="1170" y="764" type="curve" smooth="yes"/>
      <point x="1170" y="1084"/>
      <point x="1082" y="1468"/>
      <point x="686" y="1468" type="curve" smooth="yes"/>
      <point x="494" y="1468"/>
      <point x="338" y="1375"/>
      <point x="263" y="1194" type="curve"/>
      <point x="418" y="1152" type="line"/>
      <point x="468" y="1266"/>
      <point x="549" y="1322"/>
      <point x="673" y="1322" type="curve" smooth="yes"/>
      <point x="883" y="1322"/>
      <point x="978" y="1141"/>
      <point x="986" y="922" type="curve"/>
      <point x="908" y="1000"/>
      <point x="813" y="1043"/>
      <point x="703" y="1043" type="curve" smooth="yes"/>
      <point x="389" y="1043"/>
      <point x="138" y="789"/>
      <point x="138" y="449" type="curve" smooth="yes"/>
      <point x="138" y="179"/>
      <point x="303" y="-11"/>
    </contour>
    <contour>
      <point x="593" y="149" type="curve" smooth="yes"/>
      <point x="427" y="149"/>
      <point x="319" y="268"/>
      <point x="319" y="444" type="curve" smooth="yes"/>
      <point x="319" y="665"/>
      <point x="467" y="886"/>
      <point x="705" y="886" type="curve" smooth="yes"/>
      <point x="891" y="886"/>
      <point x="974" y="757"/>
      <point x="974" y="590" type="curve" smooth="yes"/>
      <point x="974" y="368"/>
      <point x="833" y="149"/>
    </contour>
  </outline>
</glyph>
<glyph name="minus" format="2">
  <advance width="1255"/>
  <unicode hex="2212"/>
  <outline>
    <contour>
      <point x="1048" y="575" type="line"/>
      <point x="1048" y="712" type="line"/>
      <point x="206" y="712" type="line"/>
      <point x="206" y="575" type="line"/>
    </contour>
  </outline>
</glyph>
<glyph name="radical" format="2">
  <advance width="1240"/>
  <unicode hex="221A"/>
  <outline>
    <contour>
      <point x="520" y="-199" type="line"/>
      <point x="1146" y="1398" type="line"/>
      <point x="998" y="1453" type="line"/>
      <point x="528" y="213" type="line"/>
      <point x="363" y="738" type="line"/>
      <point x="94" y="738" type="line"/>
      <point x="94" y="580" type="line"/>
      <point x="250" y="580" type="line"/>
    </contour>
  </outline>
</glyph>
<glyph name="greaterequal" format="2">
  <advance width="1354"/>
  <unicode hex="2265"/>
  <outline>
    <contour>
      <point x="242" y="134" type="line"/>
      <point x="1189" y="662" type="line"/>
      <point x="243" y="1189" type="line"/>
      <point x="162" y="1051" type="line"/>
      <point x="890" y="662" type="line"/>
      <point x="162" y="272" type="line"/>
    </contour>
    <contour>
      <point x="1248" y="-139" type="line"/>
      <point x="1248" y="-2" type="line"/>
      <point x="147" y="-2" type="line"/>
      <point x="147" y="-139" type="line"/>
    </contour>
  </outline>
</glyph>
<glyph name="fl" format="2">
  <advance width="1185"/>
  <unicode hex="FB02"/>
  <outline>
    <contour>
      <point x="929" y="-22" type="curve" smooth="yes" name=".dv01"/>
      <point x="972" y="-22"/>
      <point x="1030" y="-16"/>
      <point x="1078" y="-3" type="curve"/>
      <point x="1078" y="155" type="line"/>
      <point x="1060" y="149"/>
      <point x="1041" y="146"/>
      <point x="1016" y="146" type="curve" smooth="yes" name=".dv02"/>
      <point x="954" y="146"/>
      <point x="949" y="180"/>
      <point x="949" y="224" type="curve" smooth="yes" name=".sh01"/>
      <point x="949" y="1335" type="line"/>
      <point x="845" y="1421"/>
      <point x="712" y="1469"/>
      <point x="581" y="1469" type="curve" smooth="yes" name=".dv04"/>
      <point x="378" y="1469"/>
      <point x="195" y="1362"/>
      <point x="195" y="1167" type="curve" smooth="yes" name=".sh03"/>
      <point x="195" y="1064" type="line"/>
      <point x="33" y="1064" type="line" name=".dv06"/>
      <point x="33" y="914" type="line" name=".dv05"/>
      <point x="194" y="914" type="line" name=".sh02"/>
      <point x="194" y="-1" type="line"/>
      <point x="380" y="-1" type="line"/>
      <point x="380" y="914" type="line" name=".sv01"/>
      <point x="590" y="914" type="line"/>
      <point x="590" y="1064" type="line" name=".sv02"/>
      <point x="380" y="1064" type="line" name=".sh04"/>
      <point x="380" y="1140" type="line" smooth="yes"/>
      <point x="380" y="1244"/>
      <point x="453" y="1304"/>
      <point x="563" y="1304" type="curve" smooth="yes" name=".dv03"/>
      <point x="650" y="1304"/>
      <point x="714" y="1287"/>
      <point x="762" y="1257" type="curve"/>
      <point x="762" y="205" type="line" smooth="yes" name=".ah01"/>
      <point x="762" y="90"/>
      <point x="795" y="-22"/>
    </contour>
  </outline>
</glyph>
<glyph name="brevecomb_gravecomb" format="2">
  <anchor x="-434" y="1192" name="_top"/>
  <outline>
    <contour>
      <point x="-434" y="1192" type="curve" smooth="yes"/>
      <point x="-244" y="1192"/>
      <point x="-118" y="1283"/>
      <point x="-118" y="1467" type="curve"/>
      <point x="-268" y="1467" type="line"/>
      <point x="-268" y="1372"/>
      <point x="-342" y="1316"/>
      <point x="-434" y="1316" type="curve" smooth="yes"/>
      <point x="-524" y="1316"/>
      <point x="-602" y="1371"/>
      <point x="-602" y="1467" type="curve"/>
      <point x="-751" y="1467" type="line"/>
      <point x="-751" y="1285"/>
      <point x="-623" y="1192"/>
    </contour>
    <contour>
      <point x="-513" y="1468" type="line"/>
      <point x="-358" y="1468" type="line"/>
      <point x="-524" y="1693" type="line"/>
      <point x="-740" y="1693" type="line"/>
    </contour>
  </outline>
</glyph>
<glyph name="circumflexcomb_hookabovecomb" format="2">
  <anchor x="-395" y="1218" name="_top"/>
  <outline>
    <contour>
      <point x="-727" y="1192" type="line"/>
      <point x="-554" y="1192" type="line"/>
      <point x="-395" y="1370" type="line"/>
      <point x="-235" y="1192" type="line"/>
      <point x="-64" y="1192" type="line"/>
      <point x="-395" y="1553" type="line"/>
    </contour>
    <contour>
      <point x="-159" y="1329" type="line" name=".av01"/>
      <point x="27" y="1359"/>
      <point x="103" y="1415"/>
      <point x="103" y="1526" type="curve" smooth="yes" name=".dh01"/>
      <point x="103" y="1657"/>
      <point x="-20" y="1735"/>
      <point x="-226" y="1735" type="curve" smooth="yes"/>
      <point x="-246" y="1735" type="line" name=".dv02"/>
      <point x="-246" y="1620" type="line" name=".dv01"/>
      <point x="-100" y="1620"/>
      <point x="-29" y="1585"/>
      <point x="-29" y="1514" type="curve" smooth="yes" name=".sh01"/>
      <point x="-29" y="1457"/>
      <point x="-76" y="1424"/>
      <point x="-181" y="1407" type="curve"/>
    </contour>
  </outline>
</glyph>
<glyph name="eight.dnom" format="2">
  <advance width="900"/>
  <outline>
    <contour>
      <point x="447" y="-10" type="curve" smooth="yes"/>
      <point x="628" y="-10"/>
      <point x="807" y="76"/>
      <point x="807" y="278" type="curve" smooth="yes"/>
      <point x="807" y="394"/>
      <point x="746" y="483"/>
      <point x="634" y="533" type="curve"/>
      <point x="711" y="579"/>
      <point x="754" y="652"/>
      <point x="754" y="741" type="curve" smooth="yes"/>
      <point x="754" y="910"/>
      <point x="600" y="997"/>
      <point x="449" y="997" type="curve" smooth="yes"/>
      <point x="294" y="997"/>
      <point x="140" y="911"/>
      <point x="140" y="741" type="curve" smooth="yes"/>
      <point x="140" y="651"/>
      <point x="183" y="581"/>
      <point x="262" y="533" type="curve"/>
      <point x="153" y="484"/>
      <point x="87" y="401"/>
      <point x="87" y="277" type="curve" smooth="yes"/>
      <point x="87" y="76"/>
      <point x="271" y="-10"/>
    </contour>
    <contour>
      <point x="452" y="580" type="curve" smooth="yes"/>
      <point x="349" y="580"/>
      <point x="279" y="639"/>
      <point x="279" y="735" type="curve" smooth="yes"/>
      <point x="279" y="829"/>
      <point x="365" y="878"/>
      <point x="451" y="878" type="curve" smooth="yes"/>
      <point x="541" y="878"/>
      <point x="621" y="825"/>
      <point x="621" y="728" type="curve" smooth="yes"/>
      <point x="621" y="637"/>
      <point x="546" y="580"/>
    </contour>
    <contour>
      <point x="447" y="109" type="curve" smooth="yes"/>
      <point x="328" y="109"/>
      <point x="224" y="170"/>
      <point x="224" y="289" type="curve" smooth="yes"/>
      <point x="224" y="407"/>
      <point x="328" y="467"/>
      <point x="447" y="467" type="curve" smooth="yes"/>
      <point x="556" y="467"/>
      <point x="666" y="410"/>
      <point x="666" y="288" type="curve" smooth="yes"/>
      <point x="666" y="171"/>
      <point x="565" y="109"/>
    </contour>
  </outline>
</glyph>
<glyph name="f_f_i" format="2">
  <advance width="1658"/>
  <outline>
    <contour>
      <point x="1489" y="0" type="line" name=".av01"/>
      <point x="1489" y="1064" type="line" name=".sv01"/>
      <point x="920" y="1064" type="line" name=".sh02"/>
      <point x="920" y="1224"/>
      <point x="992" y="1301"/>
      <point x="1127" y="1301" type="curve" smooth="yes" name=".dv01"/>
      <point x="1218" y="1301"/>
      <point x="1288" y="1273"/>
      <point x="1357" y="1214" type="curve"/>
      <point x="1457" y="1344" type="line" name=".sh03"/>
      <point x="1368" y="1425"/>
      <point x="1256" y="1468"/>
      <point x="1142" y="1468" type="curve" smooth="yes" name=".dv02"/>
      <point x="863" y="1468"/>
      <point x="734" y="1316"/>
      <point x="734" y="1064" type="curve" name=".sv05"/>
      <point x="573" y="1064" type="line" name=".dv04"/>
      <point x="573" y="914" type="line" name=".dv03"/>
      <point x="733" y="914" type="line" name=".ah01"/>
      <point x="733" y="0" type="line" name=".av02"/>
      <point x="920" y="0" type="line"/>
      <point x="920" y="914" type="line" name=".sv02"/>
      <point x="1302" y="914" type="line" name=".ah01"/>
      <point x="1302" y="0" type="line"/>
    </contour>
    <contour>
      <point x="164" y="0" type="line" name=".av02"/>
      <point x="351" y="0" type="line"/>
      <point x="351" y="914" type="line" name=".sv04"/>
      <point x="733" y="914" type="line" name=".ah01"/>
      <point x="733" y="1064" type="line" name=".sv05"/>
      <point x="351" y="1064" type="line" name=".sh03"/>
      <point x="351" y="1124" type="line" smooth="yes"/>
      <point x="351" y="1237"/>
      <point x="432" y="1301"/>
      <point x="545" y="1301" type="curve" smooth="yes" name=".sv06"/>
      <point x="639" y="1301"/>
      <point x="716" y="1265"/>
      <point x="781" y="1196" type="curve"/>
      <point x="852" y="1348" type="line"/>
      <point x="749" y="1430"/>
      <point x="653" y="1468"/>
      <point x="514" y="1468" type="curve" smooth="yes" name=".sv01"/>
      <point x="318" y="1468"/>
      <point x="166" y="1340"/>
      <point x="166" y="1145" type="curve" smooth="yes" name=".sh02"/>
      <point x="166" y="1064" type="line" name=".sv02"/>
      <point x="7" y="1064" type="line" name=".dv06"/>
      <point x="7" y="914" type="line" name=".sv03"/>
      <point x="164" y="914" type="line" name=".sh01"/>
    </contour>
  </outline>
</glyph>
<glyph name="four.dnom" format="2">
  <advance width="874"/>
  <outline>
    <contour>
      <point x="643" y="0" type="line"/>
      <point x="643" y="246" type="line"/>
      <point x="797" y="246" type="line"/>
      <point x="797" y="371" type="line"/>
      <point x="643" y="371" type="line"/>
      <point x="643" y="967" type="line"/>
      <point x="520" y="967" type="line"/>
      <point x="57" y="327" type="line"/>
      <point x="57" y="246" type="line"/>
      <point x="504" y="246" type="line"/>
      <point x="504" y="0" type="line"/>
    </contour>
    <contour>
      <point x="504" y="371" type="line"/>
      <point x="214" y="371" type="line"/>
      <point x="504" y="771" type="line"/>
    </contour>
  </outline>
</glyph>
<glyph name="hardcyr.loclBGR" format="2">
  <advance width="1226"/>
  <outline>
    <contour>
      <point x="16" y="920" type="line" name=".dv03"/>
      <point x="327" y="920" type="line" name=".sh01"/>
      <point x="327" y="1064" type="line" name=".dh01"/>
      <point x="16" y="1064" type="line" name=".dv04"/>
    </contour>
    <contour>
      <point x="685" y="-20" type="curve" smooth="yes" name=".dv01"/>
      <point x="955" y="-20"/>
      <point x="1155" y="143"/>
      <point x="1155" y="418" type="curve" smooth="yes" name=".sh01"/>
      <point x="1155" y="702"/>
      <point x="971" y="864"/>
      <point x="697" y="864" type="curve" smooth="yes" name=".dv04"/>
      <point x="585" y="864"/>
      <point x="488" y="821"/>
      <point x="420" y="732" type="curve"/>
      <point x="420" y="1064" type="line" name=".av01"/>
      <point x="244" y="1064" type="line" name=".sh02"/>
      <point x="244" y="423" type="line" smooth="yes"/>
      <point x="244" y="152"/>
      <point x="412" y="-20"/>
    </contour>
    <contour>
      <point x="685" y="138" type="curve" smooth="yes" name=".dv02"/>
      <point x="510" y="138"/>
      <point x="420" y="261"/>
      <point x="420" y="428" type="curve" smooth="yes" name=".sh03"/>
      <point x="420" y="587"/>
      <point x="518" y="704"/>
      <point x="685" y="704" type="curve" smooth="yes" name=".dv03"/>
      <point x="855" y="704"/>
      <point x="955" y="573"/>
      <point x="955" y="422" type="curve" smooth="yes" name=".ah01"/>
      <point x="955" y="265"/>
      <point x="859" y="138"/>
    </contour>
  </outline>
</glyph>
<glyph name="kacyr.loclBGR" format="2">
  <advance width="1083"/>
  <outline>
    <contour>
      <point x="164" y="0" type="line" name=".av02"/>
      <point x="346" y="0" type="line" name=".sh01"/>
      <point x="346" y="479" type="line" name=".dv01"/>
      <point x="536" y="479" type="line" smooth="yes"/>
      <point x="621" y="479"/>
      <point x="665" y="427"/>
      <point x="696" y="347" type="curve" smooth="yes"/>
      <point x="830" y="0" type="line"/>
      <point x="1051" y="0" type="line" name=".av01"/>
      <point x="874" y="420" type="line" smooth="yes"/>
      <point x="839" y="502"/>
      <point x="783" y="589"/>
      <point x="713" y="589" type="curve" name=".iv01"/>
      <point x="988" y="1064" type="line" name=".iv02"/>
      <point x="772" y="1064" type="line"/>
      <point x="526" y="623" type="line"/>
      <point x="346" y="623" type="line" name=".dv02"/>
      <point x="346" y="1447" type="line" name=".av03"/>
      <point x="164" y="1447" type="line" name=".dh01"/>
    </contour>
  </outline>
</glyph>
<glyph name="ringcomb_acutecomb" format="2">
  <anchor x="-339" y="1280" name="_center"/>
  <outline>
    <contour>
      <point x="-339" y="1064" type="curve" smooth="yes"/>
      <point x="-215" y="1064"/>
      <point x="-122" y="1155"/>
      <point x="-122" y="1280" type="curve" smooth="yes"/>
      <point x="-122" y="1404"/>
      <point x="-215" y="1495"/>
      <point x="-339" y="1495" type="curve" smooth="yes"/>
      <point x="-463" y="1495"/>
      <point x="-556" y="1404"/>
      <point x="-556" y="1280" type="curve" smooth="yes"/>
      <point x="-556" y="1155"/>
      <point x="-463" y="1064"/>
    </contour>
    <contour>
      <point x="-339" y="1176" type="curve" smooth="yes"/>
      <point x="-398" y="1176"/>
      <point x="-442" y="1220"/>
      <point x="-442" y="1280" type="curve" smooth="yes"/>
      <point x="-442" y="1339"/>
      <point x="-398" y="1383"/>
      <point x="-339" y="1383" type="curve" smooth="yes"/>
      <point x="-280" y="1383"/>
      <point x="-236" y="1339"/>
      <point x="-236" y="1280" type="curve" smooth="yes"/>
      <point x="-236" y="1220"/>
      <point x="-280" y="1176"/>
    </contour>
    <contour>
      <point x="-295" y="1528" type="line"/>
      <point x="-9" y="1831" type="line"/>
      <point x="-225" y="1831" type="line"/>
      <point x="-449" y="1528" type="line"/>
    </contour>
  </outline>
</glyph>
<glyph name="vecyr.loclBGR" format="2">
  <advance width="1190"/>
  <outline>
    <contour>
      <point x="634" y="-20" type="curve" smooth="yes" name=".dv01"/>
      <point x="922" y="-20"/>
      <point x="1107" y="157"/>
      <point x="1107" y="444" type="curve" smooth="yes" name=".dh04"/>
      <point x="1107" y="619"/>
      <point x="1027" y="772"/>
      <point x="860" y="815" type="curve" name=".dv06"/>
      <point x="969" y="862"/>
      <point x="1053" y="975"/>
      <point x="1053" y="1100" type="curve" smooth="yes" name=".ih01"/>
      <point x="1053" y="1356"/>
      <point x="853" y="1468"/>
      <point x="622" y="1468" type="curve" smooth="yes" name=".dv04"/>
      <point x="309" y="1468"/>
      <point x="140" y="1317"/>
      <point x="140" y="1000" type="curve" smooth="yes" name=".dh01"/>
      <point x="140" y="467" type="line" smooth="yes"/>
      <point x="140" y="146"/>
      <point x="308" y="-20"/>
    </contour>
    <contour>
      <point x="626" y="142" type="curve" smooth="yes" name=".dv02"/>
      <point x="395" y="142"/>
      <point x="323" y="268"/>
      <point x="323" y="479" type="curve" smooth="yes"/>
      <point x="323" y="983" type="line" smooth="yes" name=".dh02"/>
      <point x="323" y="1197"/>
      <point x="399" y="1300"/>
      <point x="623" y="1300" type="curve" smooth="yes" name=".dv03"/>
      <point x="770" y="1300"/>
      <point x="863" y="1240"/>
      <point x="863" y="1092" type="curve" smooth="yes" name=".sh01"/>
      <point x="863" y="946"/>
      <point x="755" y="881"/>
      <point x="636" y="881" type="curve" smooth="yes" name=".sv01"/>
      <point x="566" y="881"/>
      <point x="489" y="862"/>
      <point x="440" y="832" type="curve"/>
      <point x="440" y="674" type="line" name=".ih02"/>
      <point x="501" y="716"/>
      <point x="567" y="726"/>
      <point x="641" y="726" type="curve" smooth="yes" name=".dv05"/>
      <point x="820" y="726"/>
      <point x="914" y="613"/>
      <point x="914" y="449" type="curve" smooth="yes" name=".dh03"/>
      <point x="914" y="256"/>
      <point x="830" y="142"/>
    </contour>
  </outline>
</glyph>
<glyph name="ylongcyr.loclBGR" format="2">
  <advance width="1592"/>
  <outline>
    <contour>
      <point x="1246" y="0" type="line"/>
      <point x="1433" y="0" type="line"/>
      <point x="1433" y="1064" type="line"/>
      <point x="1246" y="1064" type="line"/>
    </contour>
    <contour>
      <point x="600" y="-20" type="curve" smooth="yes" name=".dv01"/>
      <point x="870" y="-20"/>
      <point x="1070" y="143"/>
      <point x="1070" y="418" type="curve" smooth="yes" name=".sh01"/>
      <point x="1070" y="702"/>
      <point x="886" y="864"/>
      <point x="612" y="864" type="curve" smooth="yes" name=".dv04"/>
      <point x="500" y="864"/>
      <point x="403" y="821"/>
      <point x="335" y="732" type="curve"/>
      <point x="335" y="1064" type="line" name=".av01"/>
      <point x="159" y="1064" type="line" name=".sh02"/>
      <point x="159" y="423" type="line" smooth="yes"/>
      <point x="159" y="152"/>
      <point x="327" y="-20"/>
    </contour>
    <contour>
      <point x="600" y="138" type="curve" smooth="yes" name=".dv02"/>
      <point x="425" y="138"/>
      <point x="335" y="261"/>
      <point x="335" y="428" type="curve" smooth="yes" name=".sh03"/>
      <point x="335" y="587"/>
      <point x="433" y="704"/>
      <point x="600" y="704" type="curve" smooth="yes" name=".dv03"/>
      <point x="770" y="704"/>
      <point x="870" y="573"/>
      <point x="870" y="422" type="curve" smooth="yes" name=".ah01"/>
      <point x="870" y="265"/>
      <point x="774" y="138"/>
    </contour>
  </outline>
</glyph>
<glyph name="zecyr.loclBGR" format="2">
  <advance width="995"/>
  <outline>
    <contour>
      <point x="448" y="-466" type="curve" smooth="yes"/>
      <point x="738" y="-466"/>
      <point x="918" y="-250"/>
      <point x="918" y="30" type="curve" smooth="yes"/>
      <point x="918" y="214"/>
      <point x="832" y="417"/>
      <point x="617" y="425" type="curve"/>
      <point x="624" y="402" type="line"/>
      <point x="766" y="439"/>
      <point x="863" y="568"/>
      <point x="863" y="711" type="curve" smooth="yes"/>
      <point x="863" y="968"/>
      <point x="684" y="1081"/>
      <point x="445" y="1081" type="curve" smooth="yes"/>
      <point x="263" y="1081"/>
      <point x="113" y="995"/>
      <point x="33" y="831" type="curve"/>
      <point x="178" y="750" type="line"/>
      <point x="231" y="854"/>
      <point x="326" y="930"/>
      <point x="443" y="930" type="curve" smooth="yes"/>
      <point x="600" y="930"/>
      <point x="689" y="874"/>
      <point x="689" y="708" type="curve" smooth="yes"/>
      <point x="689" y="571"/>
      <point x="612" y="482"/>
      <point x="506" y="482" type="curve" smooth="yes"/>
      <point x="264" y="482" type="line"/>
      <point x="264" y="329" type="line"/>
      <point x="464" y="329" type="line" smooth="yes"/>
      <point x="641" y="329"/>
      <point x="735" y="200"/>
      <point x="735" y="30" type="curve" smooth="yes"/>
      <point x="735" y="-159"/>
      <point x="645" y="-315"/>
      <point x="437" y="-315" type="curve" smooth="yes"/>
      <point x="318" y="-315"/>
      <point x="220" y="-256"/>
      <point x="154" y="-156" type="curve"/>
      <point x="19" y="-263" type="line"/>
      <point x="132" y="-396"/>
      <point x="261" y="-466"/>
    </contour>
  </outline>
</glyph>
<glyph name="zero.numr" format="2">
  <advance width="895"/>
  <outline>
    <contour>
      <point x="448" y="478" type="curve" smooth="yes"/>
      <point x="710" y="478"/>
      <point x="821" y="755"/>
      <point x="821" y="980" type="curve" smooth="yes"/>
      <point x="821" y="1209"/>
      <point x="707" y="1488"/>
      <point x="439" y="1488" type="curve" smooth="yes"/>
      <point x="168" y="1488"/>
      <point x="65" y="1216"/>
      <point x="65" y="982" type="curve" smooth="yes"/>
      <point x="65" y="746"/>
      <point x="174" y="478"/>
    </contour>
    <contour>
      <point x="444" y="609" type="curve" smooth="yes"/>
      <point x="256" y="609"/>
      <point x="204" y="832"/>
      <point x="204" y="982" type="curve" smooth="yes"/>
      <point x="204" y="1128"/>
      <point x="256" y="1353"/>
      <point x="439" y="1353" type="curve" smooth="yes"/>
      <point x="624" y="1353"/>
      <point x="673" y="1130"/>
      <point x="673" y="983" type="curve" smooth="yes"/>
      <point x="673" y="843"/>
      <point x="623" y="609"/>
    </contour>
  </outline>
</glyph>
